<svg xmlns="http://www.w3.org/2000/svg" viewBox="0 0 750 500"><g id="freepik--background-complete--inject-59"><path d="M668.33,377.31c5-2.57,10.85-2.91,16.37-2,3,.49,6.07,1.38,8.09,3.61s2.41,6.15.09,8.07a7.76,7.76,0,0,1-5.1,1.3c-4.33-.05-9.13-.82-12.59,1.79-2,1.48-3.29,4-5.65,4.68a5.55,5.55,0,0,1-6.13-2.73,9.49,9.49,0,0,1-.7-7A10.72,10.72,0,0,1,668.33,377.31Z" style="fill:#ebebeb"></path><path d="M656.92,355.28c3,4.35,9,2.91,11.71.25s3.9-6.5,5-10.17c2.41-8.39,4.84-17.18,3-25.72a14.34,14.34,0,0,0-3.28-7,7.51,7.51,0,0,0-7.08-2.36c-3,.79-4.84,3.72-6.18,6.5A61.28,61.28,0,0,0,654,343.1c0,4.23.49,8.68,2.88,12.18" style="fill:#ebebeb"></path><path d="M648.56,361.52c3.3-3.93,3.93-9.65,2.46-14.57s-4.8-9.1-8.63-12.51a46.34,46.34,0,0,0-15.45-9.11,16.46,16.46,0,0,0-6.94-1.19,7.32,7.32,0,0,0-5.83,3.53c-1.63,3.1-.07,6.86,1.61,9.93a118.21,118.21,0,0,0,10.15,15.45c3,3.92,6.53,7.79,11.16,9.56s9.45,1.57,11.91-1.65" style="fill:#ebebeb"></path><path d="M656.71,420.89a9.18,9.18,0,0,0,.28-2c.14-1.44.31-3.25.52-5.4a77.79,77.79,0,0,1,1.22-7.91,60.79,60.79,0,0,1,2.87-9.34,34.74,34.74,0,0,1,4.77-8.45,17.87,17.87,0,0,1,6-5,16.8,16.8,0,0,1,5.08-1.58,8.82,8.82,0,0,0,2-.29,10.26,10.26,0,0,0-2,0,15.39,15.39,0,0,0-5.29,1.38,17.75,17.75,0,0,0-6.36,5.06,33.41,33.41,0,0,0-4.94,8.62,56.51,56.51,0,0,0-2.86,9.49,66.58,66.58,0,0,0-1,8c-.17,2.29-.24,4.15-.27,5.43A9.63,9.63,0,0,0,656.71,420.89Z" style="fill:#e0e0e0"></path><path d="M657.08,416.74a3.56,3.56,0,0,0,.06-.91c0-.69,0-1.56,0-2.63,0-2.27,0-5.57.12-9.63.2-8.14.9-16.89,2.25-29.24,1.28-11.6,3-25.11,4.82-33.89.39-2,.78-3.8,1.15-5.37s.65-2.94.94-4,.45-1.88.61-2.55a3.71,3.71,0,0,0,.16-.9,4.09,4.09,0,0,0-.32.86L666.1,331c-.34,1.09-.68,2.44-1.08,4s-.84,3.37-1.27,5.36a300.42,300.42,0,0,0-5.06,31.45c-1.36,12.37-2,23.63-2,31.79,0,4.07,0,7.37.14,9.65.07,1.07.12,1.93.16,2.62A5.05,5.05,0,0,0,657.08,416.74Z" style="fill:#e0e0e0"></path><path d="M657.14,395a16.39,16.39,0,0,0,0-2.74,74.58,74.58,0,0,0-.84-7.42,99.5,99.5,0,0,0-2.41-10.81,88.48,88.48,0,0,0-4.53-12.8,68.05,68.05,0,0,0-13.28-20.68,32,32,0,0,0-3.12-2.9c-.48-.41-.9-.81-1.34-1.13l-1.21-.84a19,19,0,0,0-2.3-1.48c-.13.18,3.26,2.18,7.56,6.75a72.06,72.06,0,0,1,13,20.6,101.21,101.21,0,0,1,4.54,12.68A107.84,107.84,0,0,1,655.71,385c.57,3.08.9,5.6,1.09,7.35A17.62,17.62,0,0,0,657.14,395Z" style="fill:#e0e0e0"></path><polygon points="634.69 430.04 636.87 459.86 675.17 459.86 677.35 430.04 634.69 430.04" style="fill:#ebebeb"></polygon><rect x="630.99" y="418.28" width="50.93" height="11.75" style="fill:#ebebeb"></rect><polygon points="630.99 458.71 630.99 461.97 633.38 461.97 681.08 461.97 681.08 458.71 630.99 458.71" style="fill:#e0e0e0"></polygon><polygon points="635.73 467.35 633.38 461.61 679.25 461.61 676.52 467.35 635.73 467.35" style="fill:#e0e0e0"></polygon><path d="M676.64,439.78s0,.1-.18.28l-.57.76c-.55.69-1.29,1.65-2.23,2.85l-.1.13-.1-.13L668,436.08h.31l-5.39,7.65-.17.24-.19-.23c-2-2.37-4.16-4.94-6.4-7.62h.37l-.36.44-5.72,7.18-.19.24-.18-.25-5.4-7.64H645l-6.65,7.58-.12.13-.09-.15c-.88-1.47-1.58-2.64-2.08-3.5l-.54-.93a1.16,1.16,0,0,1-.16-.33s.08.09.22.3.35.53.59.89l2.19,3.44-.21,0,6.54-7.67.17-.19.15.21,5.45,7.6h-.37l5.71-7.18.35-.45.18-.23.19.23,6.39,7.63h-.36l5.45-7.6.16-.22.15.22,5.37,7.66h-.19l2.32-2.79.62-.71A1.72,1.72,0,0,1,676.64,439.78Z" style="fill:#f5f5f5"></path><path d="M677.88,429.84c0,.13-9.6.24-21.43.24S635,430,635,429.84s9.6-.24,21.44-.24S677.88,429.71,677.88,429.84Z" style="fill:#f5f5f5"></path><rect x="204.69" y="213.43" width="7.52" height="56.3" transform="translate(-33.13 450.03) rotate(-90)" style="fill:#e0e0e0"></rect><path d="M188,238.13c.19,0,.35,1.58.35,3.53s-.16,3.52-.35,3.52-.36-1.58-.36-3.52S187.77,238.13,188,238.13Z" style="fill:#fafafa"></path><path d="M186.74,238c.2,0,.36,1.58.36,3.52s-.16,3.53-.36,3.53-.35-1.58-.35-3.53S186.55,238,186.74,238Z" style="fill:#fafafa"></path><path d="M232.25,238.13c.19,0,.35,1.58.35,3.53s-.16,3.52-.35,3.52-.36-1.58-.36-3.52S232.05,238.13,232.25,238.13Z" style="fill:#fafafa"></path><path d="M231,238c.2,0,.35,1.58.35,3.52S231.22,245,231,245s-.35-1.58-.35-3.53S230.83,238,231,238Z" style="fill:#fafafa"></path><path d="M223.67,241.81c0,.2-6.45.35-14.4.35s-14.41-.15-14.41-.35,6.45-.35,14.41-.35S223.67,241.62,223.67,241.81Z" style="fill:#fafafa"></path><rect x="200.68" y="251.06" width="15.04" height="56.3" transform="translate(-71 487.41) rotate(-90)" style="fill:#e0e0e0"></rect><path d="M237.08,282.5a1.46,1.46,0,0,1-.31.17,9.39,9.39,0,0,1-.94.43,16.08,16.08,0,0,1-3.81,1.09,10,10,0,0,1-6.2-.87,8.35,8.35,0,0,1-2.94-2.67,6.15,6.15,0,0,1-1-4.33,4.55,4.55,0,0,1,1-2.24,2.94,2.94,0,0,1,2.38-1.08,3.4,3.4,0,0,1,2.38,1.28,4.62,4.62,0,0,1,1.09,2.57,6.8,6.8,0,0,1-1.94,5.33,8.6,8.6,0,0,1-5.41,2.65,14.56,14.56,0,0,1-6.28-.78,11.72,11.72,0,0,1-5.49-3.69,6.08,6.08,0,0,1-1.28-3.25,4.23,4.23,0,0,1,1.2-3.38,2.78,2.78,0,0,1,1.76-.77,3.17,3.17,0,0,1,1.84.52,4.88,4.88,0,0,1,2.08,3,7.13,7.13,0,0,1-2.22,6.63,11.08,11.08,0,0,1-6.34,2.58,15.6,15.6,0,0,1-6.57-.65,9.1,9.1,0,0,1-5-3.88,6.66,6.66,0,0,1-.63-6,3.14,3.14,0,0,1,2.3-1.94,3.63,3.63,0,0,1,2.83.68,4.68,4.68,0,0,1,1.34,5.07,8.76,8.76,0,0,1-2.83,4,12.82,12.82,0,0,1-7.72,3,12.43,12.43,0,0,1-9.31-3.76,9.64,9.64,0,0,1-.68-.78c-.14-.19-.2-.28-.19-.29a14.24,14.24,0,0,0,4.18,3.19,12.26,12.26,0,0,0,6,1.24,12.44,12.44,0,0,0,7.41-3,8.25,8.25,0,0,0,2.64-3.78,4.14,4.14,0,0,0-1.17-4.44,3.07,3.07,0,0,0-2.37-.56,2.53,2.53,0,0,0-1.84,1.6,6,6,0,0,0,.62,5.39,8.39,8.39,0,0,0,4.66,3.58,15,15,0,0,0,6.27.6,10.47,10.47,0,0,0,5.94-2.41,6.42,6.42,0,0,0,2-5.95,4.18,4.18,0,0,0-1.76-2.59,2.15,2.15,0,0,0-2.75.16,3.59,3.59,0,0,0-1,2.82,5.35,5.35,0,0,0,1.14,2.88,11,11,0,0,0,5.15,3.47,13.93,13.93,0,0,0,6,.77,8,8,0,0,0,5-2.42,6.28,6.28,0,0,0,1.81-4.85c-.14-1.65-1.4-3.27-2.92-3.37a2.45,2.45,0,0,0-2,.88,4.17,4.17,0,0,0-.93,2,5.74,5.74,0,0,0,.91,4A7.89,7.89,0,0,0,226,283a9.74,9.74,0,0,0,6,.95,17.65,17.65,0,0,0,3.8-.95C236.63,282.66,237.07,282.47,237.08,282.5Z" style="fill:#fafafa"></path><rect x="197.67" y="232.97" width="26.1" height="51.27" transform="translate(-47.89 469.33) rotate(-90)" style="fill:#ebebeb"></rect><path d="M193.6,246.46c.2,0,.36,5.65.36,12.63s-.16,12.63-.36,12.63-.35-5.65-.35-12.63S193.41,246.46,193.6,246.46Z" style="fill:#e0e0e0"></path><path d="M197.49,246.13c.19,0,.35,5.59.35,12.47s-.16,12.47-.35,12.47-.36-5.58-.36-12.47S197.29,246.13,197.49,246.13Z" style="fill:#e0e0e0"></path><path d="M230.56,245.29c.2,0,.35,5.88.35,13.14s-.15,13.13-.35,13.13-.35-5.88-.35-13.13S230.36,245.29,230.56,245.29Z" style="fill:#e0e0e0"></path><path d="M226,245.65c.2,0,.36,5.73.36,12.79s-.16,12.79-.36,12.79-.35-5.72-.35-12.79S225.8,245.65,226,245.65Z" style="fill:#e0e0e0"></path><path d="M267.19,62.79l-.22-.07-.62-.24-2.39-1-8.74-3.74L226.47,45.22l-1-.44h.21l-28.17,12L189,60.41l-2.33,1a4.74,4.74,0,0,1-.82.29,6.11,6.11,0,0,1,.78-.39l2.29-1,8.46-3.73L225.48,44.3l.1,0,.1,0,1,.44L255.37,57.4,264,61.3l2.35,1.08.6.29C267.13,62.74,267.2,62.78,267.19,62.79Z" style="fill:#e0e0e0"></path><rect x="127.38" y="58.66" width="184.66" height="138.26" style="fill:#e0e0e0"></rect><rect x="133.84" y="65.09" width="172.44" height="126.15" style="fill:#fafafa"></rect><path d="M171.93,120.21s.18,21.17,1.25,27.64l26.57-1.26s-2.34-20.82-1.44-26.38Z" style="fill:#e0e0e0"></path><path d="M185,123.2h.39a5.87,5.87,0,0,1,1.1.06,5.8,5.8,0,0,1,1.69.5,5.49,5.49,0,0,1,1.84,1.45,6.48,6.48,0,0,1,1.27,2.56A6.13,6.13,0,0,1,191,131a9.6,9.6,0,0,1-.74,1.64,17.24,17.24,0,0,0-.85,1.66,14,14,0,0,0-1.08,3.77v.09h-.09l-2.62,0-2.75,0h-.1v-.1a8,8,0,0,0-1.28-3.63c-.31-.54-.66-1-1-1.57a14.06,14.06,0,0,1-.93-1.52,5.06,5.06,0,0,1-.42-3.23,6.9,6.9,0,0,1,1-2.65,5.2,5.2,0,0,1,1.72-1.56,7,7,0,0,1,1.64-.63,6.93,6.93,0,0,1,1.08-.17,1.45,1.45,0,0,1,.28,0h0l-.29,0a10.7,10.7,0,0,0-1.07.21,7.21,7.21,0,0,0-1.59.65,5.08,5.08,0,0,0-1.68,1.55,6.72,6.72,0,0,0-1,2.59,4.88,4.88,0,0,0,.42,3.13,13.69,13.69,0,0,0,.93,1.51c.32.5.67,1,1,1.57a8,8,0,0,1,1.31,3.72l-.1-.1,2.75,0,2.62,0-.1.09a14.76,14.76,0,0,1,1.1-3.83,16.41,16.41,0,0,1,.87-1.67,9.62,9.62,0,0,0,.73-1.61,6,6,0,0,0,.3-3.19,6.24,6.24,0,0,0-1.23-2.5,5.35,5.35,0,0,0-1.78-1.45,5.93,5.93,0,0,0-1.65-.52,6.36,6.36,0,0,0-1.1-.09H185Z" style="fill:#fff"></path><path d="M186.37,138a.62.62,0,0,0,0-.09l0-.24c0-.22-.09-.54-.15-.95-.12-.83-.29-2-.41-3.51,0-.37-.06-.76-.07-1.16s0-.83,0-1.27a3.72,3.72,0,0,1,.3-1.33,2,2,0,0,1,1-1,1.37,1.37,0,0,1,1.45.28,1,1,0,0,1,.31.73,1.33,1.33,0,0,1-.27.76,1.77,1.77,0,0,1-.64.51,2.82,2.82,0,0,1-.79.26,9.3,9.3,0,0,1-1.68.2,10.4,10.4,0,0,1-1.68-.08,3.51,3.51,0,0,1-.8-.23,2,2,0,0,1-.67-.48,1.51,1.51,0,0,1-.39-.71,1.2,1.2,0,0,1,.1-.79,1.11,1.11,0,0,1,.55-.54,1,1,0,0,1,.76,0,1.45,1.45,0,0,1,.56.48,1.83,1.83,0,0,1,.28.66,8,8,0,0,1,.14,1.36c0,.87.09,1.68.13,2.43.07,1.48.13,2.69.17,3.52,0,.41,0,.74,0,1v.33a.28.28,0,0,1,0-.08l0-.25c0-.22,0-.55-.06-1-.05-.83-.12-2-.2-3.52,0-.74-.09-1.56-.14-2.43a7.72,7.72,0,0,0-.14-1.34,1.65,1.65,0,0,0-.27-.64,1.36,1.36,0,0,0-.53-.45.85.85,0,0,0-.7,0,.93.93,0,0,0-.51.5,1.09,1.09,0,0,0-.09.73,1.51,1.51,0,0,0,.37.68,2.41,2.41,0,0,0,1.42.68,10.27,10.27,0,0,0,1.67.08,9.08,9.08,0,0,0,1.66-.2,2.89,2.89,0,0,0,.77-.25,1.64,1.64,0,0,0,.61-.49,1.19,1.19,0,0,0,.26-.71.88.88,0,0,0-.29-.67,1.28,1.28,0,0,0-1.36-.27,1.93,1.93,0,0,0-1,1,3.56,3.56,0,0,0-.3,1.3c0,.44,0,.86,0,1.26s0,.8.07,1.17c.11,1.48.27,2.68.38,3.5.06.41.1.73.13,1l0,.25Z" style="fill:#fff"></path><path d="M182.88,138.1s0,.33.07.88.07,1.41.11,2.3l0-.06,1.79,2.06-.09,0,2.07-.11-.09,0c.33-.4.68-.82,1-1.26l.51-.62,0,.08c0-1.21-.06-2.36-.08-3.41l.11.11-3.86,0h-1.53a1.87,1.87,0,0,1,.37,0l1.08-.06,3.94-.15h.11V138c0,1,.06,2.19.1,3.4v0l0,0-.51.63c-.36.43-.7.85-1,1.26l0,0h-.05l-2.07.1h-.06l0,0-1.76-2.09,0,0v0c0-.91,0-1.7,0-2.35A5,5,0,0,1,182.88,138.1Z" style="fill:#fff"></path><path d="M188.21,141.09,188,141l-.54-.21a5.23,5.23,0,0,0-3.71.12c-.23.09-.41.18-.53.24s-.18.1-.19.09l.18-.12a4.36,4.36,0,0,1,.51-.27,5.07,5.07,0,0,1,1.87-.42,4.78,4.78,0,0,1,1.89.31,3.06,3.06,0,0,1,.53.24A.6.6,0,0,1,188.21,141.09Z" style="fill:#fff"></path><path d="M188.21,140.26a1.24,1.24,0,0,1-.19-.08,5.81,5.81,0,0,0-.54-.22,5.67,5.67,0,0,0-1.87-.28,5.13,5.13,0,0,0-1.84.4c-.23.09-.41.18-.53.24l-.19.1.18-.13c.11-.07.29-.16.51-.27a5,5,0,0,1,1.87-.42,4.81,4.81,0,0,1,1.89.31,4.08,4.08,0,0,1,.53.24A1,1,0,0,1,188.21,140.26Z" style="fill:#fff"></path><path d="M188.16,139.47l-.19-.08-.54-.21a5.16,5.16,0,0,0-3.71.11,4.59,4.59,0,0,0-.53.25c-.12.06-.18.1-.19.09l.18-.12a5.38,5.38,0,0,1,.51-.27,5.06,5.06,0,0,1,1.87-.43,5.17,5.17,0,0,1,1.89.31c.23.09.41.18.53.24Z" style="fill:#fff"></path><path d="M142.35,85.59s.18,21.17,1.25,27.64L170.16,112s-2.33-20.82-1.43-26.38Z" style="fill:#ebebeb"></path><path d="M164.73,94.48a76,76,0,0,1-8.9.8,75.8,75.8,0,0,1-8.93.27,77.1,77.1,0,0,1,8.9-.79A77.26,77.26,0,0,1,164.73,94.48Z" style="fill:#fff"></path><path d="M164.73,99a76.76,76.76,0,0,1-8.89.79,77.28,77.28,0,0,1-8.93.28,78,78,0,0,1,8.9-.8A75.63,75.63,0,0,1,164.73,99Z" style="fill:#fff"></path><path d="M160.22,103.37a24.44,24.44,0,0,1-5.06.57,24.23,24.23,0,0,1-5.1,0,25.76,25.76,0,0,1,5.06-.56A25.55,25.55,0,0,1,160.22,103.37Z" style="fill:#fff"></path><path d="M141.09,147.89s.18,21.18,1.26,27.64l26.56-1.26s-2.34-20.81-1.44-26.38Z" style="fill:#ebebeb"></path><path d="M163.47,156.79a77.1,77.1,0,0,1-8.9.79,77.26,77.26,0,0,1-8.93.28,78.65,78.65,0,0,1,8.9-.8A75.8,75.8,0,0,1,163.47,156.79Z" style="fill:#fff"></path><path d="M163.48,161.27a76,76,0,0,1-8.9.8,77.26,77.26,0,0,1-8.93.28,75.38,75.38,0,0,1,8.9-.8A77.26,77.26,0,0,1,163.48,161.27Z" style="fill:#fff"></path><path d="M159,165.68a25.76,25.76,0,0,1-5.06.56,25.55,25.55,0,0,1-5.1,0,24.6,24.6,0,0,1,5.07-.57A24.15,24.15,0,0,1,159,165.68Z" style="fill:#fff"></path><polygon points="213.68 91.2 216.31 152.28 292.56 153.2 289.14 92.01 213.68 91.2" style="fill:#ebebeb"></polygon><rect x="212.79" y="90.76" width="75.74" height="57.2" style="fill:#f5f5f5"></rect><path d="M288.54,148s0-.37,0-1.06,0-1.73,0-3.06c0-2.68,0-6.58-.05-11.57,0-10-.07-24.24-.12-41.51l.22.22L212.8,91h0l.26-.26c0,20.57,0,40.05,0,57.2l-.24-.24,54.64.12,15.54.06,4.13,0h1.07l.37,0h-1.39l-4.08,0-15.49.07-54.79.11h-.23V148c0-17.15,0-36.63,0-57.2V90.5h.27l75.74,0h.21v.21c0,17.32-.08,31.64-.11,41.65,0,5,0,8.85-.05,11.52,0,1.31,0,2.31,0,3S288.54,148,288.54,148Z" style="fill:#e0e0e0"></path><rect x="221.93" y="102.88" width="30.71" height="38.64" style="fill:#f5f5f5"></rect><path d="M252.64,141.52a.76.76,0,0,1,0-.19v-.55c0-.51,0-1.22,0-2.12,0-1.86,0-4.54-.06-7.92,0-6.81-.07-16.43-.12-27.86l.24.23-30.71,0c-.06,0,.49-.49.26-.25h0v10.5c0,3.43,0,6.78,0,10,0,6.49,0,12.57,0,18.09l-.22-.21,22.23.11,6.24.05,1.65,0,.59,0-.54,0-1.61,0-6.19.06-22.37.11h-.21v-.22c0-5.52,0-11.6,0-18.09,0-3.25,0-6.6,0-10V102.9h0l.26-.27,30.71,0h.23v.23c-.05,11.49-.09,21.17-.12,28,0,3.36,0,6-.06,7.87q0,1.32,0,2.07v.52A.86.86,0,0,1,252.64,141.52Z" style="fill:#e0e0e0"></path><rect x="223.11" y="94.04" width="58.84" height="5.57" style="fill:#f5f5f5"></rect><path d="M282,99.6s0-.13,0-.38,0-.62,0-1.08c0-1,0-2.34-.06-4.1l.1.1c-9.92.09-32.54.16-58.84.16h0c.52-.52.14-.15.26-.26h0V99.6l-.26-.25,41.71.11,12.52.07,3.4,0,.9,0H282a.79.79,0,0,1-.28,0l-.86,0-3.34,0L265,99.75l-41.9.11h-.26V94h0l.26-.26h0c26.3,0,48.92.06,58.84.15h.11V94c0,1.79-.05,3.18-.06,4.16,0,.45,0,.8,0,1.06A1.11,1.11,0,0,1,282,99.6Z" style="fill:#e0e0e0"></path><rect x="256.4" y="102.88" width="25.56" height="23.29" style="fill:#f5f5f5"></rect><path d="M282,126.17a4.26,4.26,0,0,1,0-.45c0-.32,0-.74,0-1.27,0-1.13,0-2.73-.06-4.74,0-4.1-.06-9.89-.11-16.83l.22.22-25.55,0,.26-.26h0V106c0,1,0,2.08,0,3.1v6c0,3.91,0,7.61,0,11l-.22-.23,18.43.12,5.23.06,1.4,0,.49,0a2.23,2.23,0,0,1-.44,0l-1.35,0-5.18.06-18.58.12h-.23v-.23c0-3.42,0-7.12,0-11V102.9h0l.26-.26,25.55,0h.23v.22c0,7-.08,12.84-.11,17,0,2,0,3.57-.06,4.7,0,.5,0,.91,0,1.22A1.87,1.87,0,0,1,282,126.17Z" style="fill:#e0e0e0"></path><rect x="256.4" y="129.82" width="25.56" height="11.7" style="fill:#f5f5f5"></rect><path d="M282,141.52s0-.3,0-.85,0-1.37-.05-2.35c0-2.06-.05-4.95-.1-8.5l.19.19-25.55.07c-.24.23.31-.32.26-.26h0v3c0,1,0,2,0,3,0,2,0,3.86,0,5.67l-.24-.24,18.27.11,5.33.07,1.44,0,.51,0a2.36,2.36,0,0,1-.46,0l-1.38,0-5.27.07-18.44.12h-.25v-.25c0-1.81,0-3.71,0-5.67v-6h0l.26-.26,25.55.07h.19v.19c0,3.6-.08,6.53-.1,8.62,0,1,0,1.73-.05,2.31A3.8,3.8,0,0,1,282,141.52Z" style="fill:#e0e0e0"></path><path d="M251.88,103c-9.51,13.13-20.44,25.44-29.95,38.57" style="fill:#fff"></path><path d="M221.93,141.52a1.89,1.89,0,0,1,.25-.43l.8-1.18c.71-1,1.76-2.46,3.08-4.23,2.64-3.55,6.41-8.36,10.64-13.61s8.05-10,10.76-13.5l3.2-4.14.88-1.11c.21-.26.32-.38.34-.37a3.16,3.16,0,0,1-.25.43l-.81,1.17c-.7,1-1.75,2.47-3.07,4.24-2.64,3.55-6.41,8.35-10.64,13.61s-8.05,10-10.76,13.5l-3.2,4.13-.88,1.12C222.06,141.41,222,141.53,221.93,141.52Z" style="fill:#e0e0e0"></path><line x1="221.93" y1="102.88" x2="252.64" y2="141.52" style="fill:#fff"></line><path d="M252.64,141.52c-.12.09-7.08-8.49-15.56-19.16S221.82,103,221.93,102.88,229,111.37,237.49,122,252.75,141.43,252.64,141.52Z" style="fill:#e0e0e0"></path><circle cx="211.5" cy="102.96" r="4.8" style="fill:#e0e0e0"></circle><path d="M294.87,91.3a4.81,4.81,0,1,1-4.8-4.8A4.8,4.8,0,0,1,294.87,91.3Z" style="fill:#e0e0e0"></path><path d="M137.38,366.67h48.74a6.21,6.21,0,0,0,6.21-6.21v-15A10.47,10.47,0,0,0,181.86,335H137Z" style="fill:#ebebeb"></path><path d="M185.3,376.11H89.45a4.72,4.72,0,0,1-4.72-4.72h0a4.72,4.72,0,0,1,4.72-4.72H185.3a4.72,4.72,0,0,1,4.73,4.72h0A4.72,4.72,0,0,1,185.3,376.11Z" style="fill:#ebebeb"></path><path d="M69.92,240.83l52.73-.94,33.47,126.5-71.39.72L57.82,256.21A12.45,12.45,0,0,1,69.92,240.83Z" style="fill:#e0e0e0"></path><polygon points="96.19 376.11 80.41 467.8 84.73 467.8 105.48 376.11 96.19 376.11" style="fill:#ebebeb"></polygon><polygon points="133.38 376.11 116.62 467.8 120.94 467.8 142.67 376.11 133.38 376.11" style="fill:#e0e0e0"></polygon><polygon points="174.52 376.11 193.22 467.8 188.9 467.8 165.23 376.11 174.52 376.11" style="fill:#ebebeb"></polygon><path d="M116.62,239.89l26.09,126.64h20L141.8,254.63a18,18,0,0,0-17.72-14.74Z" style="fill:#ebebeb"></path><rect x="479.9" y="63.13" width="8.38" height="41.7" transform="translate(-0.44 2.59) rotate(-0.31)" style="fill:#e0e0e0"></rect><rect x="407.25" y="63.28" width="21.7" height="23.02" transform="translate(-0.39 2.24) rotate(-0.31)" style="fill:#ebebeb"></rect><rect x="428.85" y="63.16" width="21.7" height="23.02" transform="translate(-0.39 2.36) rotate(-0.31)" style="fill:#f5f5f5"></rect><path d="M407.22,69.69q21.64.18,43.3-.2a.23.23,0,0,0,0-.46c-14.42-.08-28.88,0-43.3.27a.2.2,0,0,0,0,.39Z" style="fill:#e0e0e0"></path><rect x="393.71" y="85.96" width="39.43" height="18.76" transform="translate(-0.5 2.22) rotate(-0.31)" style="fill:#ebebeb"></rect><rect x="432.95" y="85.75" width="39.43" height="18.76" transform="matrix(1, -0.01, 0.01, 1, -0.5, 2.43)" style="fill:#f5f5f5"></rect><path d="M393.69,91.28c26.19.3,52.47,0,78.67-.39a.23.23,0,0,0,0-.46c-26.19-.14-52.48-.12-78.67.46a.2.2,0,0,0,0,.39Z" style="fill:#e0e0e0"></path><rect x="378.94" y="104.83" width="152.76" height="6.72" style="fill:#e0e0e0"></rect><rect x="403.95" y="108.06" width="6.2" height="22.93" style="fill:#e0e0e0"></rect><rect x="496.52" y="108.06" width="6.2" height="22.93" style="fill:#e0e0e0"></rect><rect x="488.12" y="47.58" width="8.38" height="57.35" transform="translate(-0.4 2.64) rotate(-0.31)" style="fill:#ebebeb"></rect><rect x="496.54" y="58.27" width="13.02" height="46.48" transform="matrix(1, -0.01, 0.01, 1, -0.43, 2.7)" style="fill:#f5f5f5"></rect><path d="M509.35,67.19a96.43,96.43,0,0,1-13,0,92.25,92.25,0,0,1,13,0Z" style="fill:#e0e0e0"></path><path d="M509.35,65.24a96.43,96.43,0,0,1-13,0,92.25,92.25,0,0,1,13,0Z" style="fill:#e0e0e0"></path><path d="M509.35,97.72a96.43,96.43,0,0,1-13,0,92.25,92.25,0,0,1,13,0Z" style="fill:#e0e0e0"></path><path d="M509.35,95.77a96.43,96.43,0,0,1-13,0,92.25,92.25,0,0,1,13,0Z" style="fill:#e0e0e0"></path><path d="M503.05,91.51c-.12,0-.22-4.69-.22-10.48s.1-10.47.22-10.47.23,4.69.23,10.47S503.18,91.51,503.05,91.51Z" style="fill:#e0e0e0"></path><rect x="509.5" y="69.65" width="14.17" height="35.08" style="fill:#ebebeb"></rect><path d="M517,95.63a3,3,0,0,1-3.17-3.15A2.74,2.74,0,0,1,515,90.11l.32.44a2.3,2.3,0,0,0-.93,1.93,2.63,2.63,0,0,0,5.26,0,2.3,2.3,0,0,0-.93-1.93l.32-.44a2.74,2.74,0,0,1,1.15,2.37A3.05,3.05,0,0,1,517,95.63Z" style="fill:#fafafa"></path><path d="M519.35,89.24l-.48-.28a3.59,3.59,0,0,0,.75-2.24c0-1.32-.46-1.84-1.17-1.84-1.81,0-.48,4.13-2.93,4.13-.94,0-1.71-.79-1.71-2.37a3.83,3.83,0,0,1,.61-2.13l.48.27a3.25,3.25,0,0,0-.56,1.88c0,1.22.5,1.75,1.17,1.75,1.88,0,.55-4.13,2.93-4.13,1,0,1.71.87,1.71,2.46A3.94,3.94,0,0,1,519.35,89.24Z" style="fill:#fafafa"></path><path d="M519.35,83.53l-.48-.28a3.62,3.62,0,0,0,.75-2.25c0-1.31-.46-1.84-1.17-1.84-1.81,0-.48,4.14-2.93,4.14-.94,0-1.71-.79-1.71-2.37a3.84,3.84,0,0,1,.61-2.14l.48.28a3.22,3.22,0,0,0-.56,1.87c0,1.22.5,1.76,1.17,1.76,1.88,0,.55-4.13,2.93-4.13,1,0,1.71.87,1.71,2.46A3.94,3.94,0,0,1,519.35,83.53Z" style="fill:#fafafa"></path><circle cx="492.03" cy="57.35" r="2.41" style="fill:#e0e0e0"></circle><rect x="491.29" y="63.97" width="1.49" height="34.12" style="fill:#e0e0e0"></rect><path d="M278.48,457.47c-1.69-1.45-5.46-6-2.55-11.38,1.07-2,3.33-2.92,5.38-3.79a21.67,21.67,0,0,0,5.89-3.05c3.2-2.72,4.08-7.24,6.21-10.87,2.43-4.16,7-7.28,11.78-7.06,5.5.25,10.09,4.74,12.17,9.86s2.15,10.81,2.2,16.34c0,3.06-.12,6.51-2.36,8.58-2.07,1.9-5.19,1.93-8,1.84L279.14,457" style="fill:#f5f5f5"></path><path d="M336,374.8H256.92l14.24,84.92a9.49,9.49,0,0,0,6.75,7.56l.28.08c.24.06.46.14.7.18a9.56,9.56,0,0,0,1.61.18v.09l.39-.07h35.24a10.07,10.07,0,0,0,9.93-8.49l6.87-58.51.31-2.32h0l2.72-23.18ZM321.07,429H313l.82-24.64h9.4ZM324,404.33h7.77L328.84,429h-7Zm-23.18,52-.49-21.41H312l-.71,21.41Zm-12.63-21.41H299.5l.5,21.41H289.81Zm.88,21.41h-9.52c-.91-5.78-2.08-13.29-3.36-21.41h11.21ZM287.69,429l-1.91-24.64h13l.57,24.64Zm12.46,0-.57-24.64H313L312.17,429Zm-.7-30.55-.53-22.83h15l-.76,22.83Zm-.79,0H285.32l-1.78-22.83h14.6Zm-14.13,0H270.41c-.5-3.16-1-6.14-1.4-8.82-1.48-9.23-2-12.7-2.34-14h16.09Zm.46,5.91L286.9,429H275.23c-.4-2.5-.8-5-1.19-7.56l-2.7-17.08ZM274.43,429H266.8l-4.13-24.64h7.88C271.75,411.94,273.09,420.42,274.43,429Zm.93,5.91c1.16,7.41,2.31,14.72,3.35,21.41h-7.33l-3.59-21.41Zm36.69,21.41.71-21.41h7.8l-1.83,21.41ZM314,398.42l.76-22.83h10.9l-1.95,22.83Zm-48.05-22.83c.32,1.65,1.76,10.63,3.69,22.83h-7.93l-3.83-22.83Zm59.71,80.7h-6.11l1.83-21.41h6.79Zm6.79-57.87h-8l2-22.83h8.69Z" style="fill:#e0e0e0"></path></g><g id="freepik--Floor--inject-59"><path d="M691.44,467.8c0,.14-141.68.26-316.42.26s-316.46-.12-316.46-.26,141.65-.26,316.46-.26S691.44,467.66,691.44,467.8Z" style="fill:#263238"></path></g><g id="freepik--Plant--inject-59"><path d="M159.94,445.83a1.64,1.64,0,0,1,.15-.34c.11-.25.26-.57.46-1a24.6,24.6,0,0,0,1.36-4,35,35,0,0,0-.11-15.28A82.39,82.39,0,0,0,159,415c-1.2-3.64-2.59-7.5-3.73-11.68a45.42,45.42,0,0,1-1.84-13.43c.17-4.76,1.58-9.5,3.13-14.22s3.14-9.35,3.61-14a21.3,21.3,0,0,0-2.56-12.93c-2-3.77-4.63-7-6.55-10.34a35.77,35.77,0,0,1-3.94-9.94,36.92,36.92,0,0,1-.25-15.4,28.43,28.43,0,0,1,1.61-5.44s0,.12-.1.36l-.33,1a39.44,39.44,0,0,0-1,4.07,37.41,37.41,0,0,0,.4,15.29,35.78,35.78,0,0,0,4,9.81c1.92,3.31,4.51,6.52,6.6,10.34a21.82,21.82,0,0,1,2.64,13.19c-.48,4.73-2.09,9.38-3.63,14.1s-2.93,9.41-3.11,14.08a44.78,44.78,0,0,0,1.8,13.3c1.12,4.16,2.49,8,3.68,11.68a81.09,81.09,0,0,1,2.79,10.32,34.72,34.72,0,0,1,0,15.39,23.13,23.13,0,0,1-1.46,4l-.51,1A1.5,1.5,0,0,1,159.94,445.83Z" style="fill:#263238"></path><path d="M153.63,341.7s-3.91-12.52,3.11-19.85a.44.44,0,0,1,.75.21C157.86,324.13,158.33,330.43,153.63,341.7Z" style="fill:#BA68C8"></path><path d="M156,326a11.79,11.79,0,0,1-.26,2.31c-.26,1.59-.56,3.46-.9,5.52s-.62,3.93-.87,5.52a13.17,13.17,0,0,1-.42,2.29,10.46,10.46,0,0,1,.07-2.33c.13-1.43.38-3.4.74-5.56s.73-4.1,1-5.5A10,10,0,0,1,156,326Z" style="fill:#263238"></path><path d="M158.23,371.22s2.4-12.89,12-16.09a.44.44,0,0,1,.56.54C170.19,357.67,167.65,363.46,158.23,371.22Z" style="fill:#BA68C8"></path><path d="M167.64,358.46a11.58,11.58,0,0,1-1.31,1.92L163,364.85l-3.35,4.47a11.94,11.94,0,0,1-1.44,1.82,10,10,0,0,1,1.15-2c.79-1.21,1.93-2.83,3.25-4.57s2.57-3.29,3.49-4.38A10.9,10.9,0,0,1,167.64,358.46Z" style="fill:#263238"></path><path d="M155.63,403.58s-1.45-13,6.84-18.89a.43.43,0,0,1,.69.35C163.13,387.14,162.39,393.41,155.63,403.58Z" style="fill:#BA68C8"></path><path d="M160.92,388.64a10.46,10.46,0,0,1-.7,2.21c-.55,1.52-1.21,3.29-1.93,5.25s-1.36,3.74-1.91,5.26a12.8,12.8,0,0,1-.84,2.16,9.48,9.48,0,0,1,.51-2.27c.4-1.38,1-3.26,1.78-5.32s1.5-3.89,2.07-5.2A10.62,10.62,0,0,1,160.92,388.64Z" style="fill:#263238"></path><path d="M162.89,436.12s-1-13.08,7.51-18.63a.43.43,0,0,1,.67.38C171,420,170,426.2,162.89,436.12Z" style="fill:#BA68C8"></path><path d="M168.71,421.38a10.28,10.28,0,0,1-.78,2.19l-2.11,5.18c-.79,1.93-1.5,3.69-2.1,5.18a12.56,12.56,0,0,1-.92,2.13,9.44,9.44,0,0,1,.59-2.25c.45-1.36,1.14-3.22,2-5.25s1.64-3.83,2.26-5.13A10.22,10.22,0,0,1,168.71,421.38Z" style="fill:#263238"></path><path d="M148,330.7s-11.63-6.07-11.86-16.22a.44.44,0,0,1,.68-.38C138.56,315.3,143.35,319.41,148,330.7Z" style="fill:#BA68C8"></path><path d="M138.57,318a13,13,0,0,1,1.45,1.82l3.27,4.53,3.29,4.52a14.44,14.44,0,0,1,1.33,1.91,9.41,9.41,0,0,1-1.6-1.69c-.92-1.1-2.14-2.67-3.41-4.45s-2.39-3.42-3.17-4.62A9.81,9.81,0,0,1,138.57,318Z" style="fill:#263238"></path><path d="M160.49,357.58s-12-5.35-12.81-15.47a.43.43,0,0,1,.65-.41C150.13,342.79,155.16,346.6,160.49,357.58Z" style="fill:#BA68C8"></path><path d="M150.3,345.45a11.36,11.36,0,0,1,1.55,1.72l3.55,4.33,3.56,4.31a13,13,0,0,1,1.44,1.82,9.28,9.28,0,0,1-1.7-1.59c-1-1-2.3-2.53-3.68-4.23s-2.59-3.27-3.44-4.42A10,10,0,0,1,150.3,345.45Z" style="fill:#263238"></path><path d="M153.6,387.58s-8.22-10.23-4.36-19.62a.43.43,0,0,1,.77-.07C151.11,369.68,153.85,375.37,153.6,387.58Z" style="fill:#BA68C8"></path><path d="M150.05,372.13a10.42,10.42,0,0,1,.6,2.24c.35,1.58.75,3.42,1.19,5.47s.86,3.88,1.2,5.46a12,12,0,0,1,.45,2.28,10,10,0,0,1-.78-2.2c-.4-1.37-.89-3.3-1.35-5.44s-.82-4.09-1.05-5.5A10.89,10.89,0,0,1,150.05,372.13Z" style="fill:#263238"></path><path d="M161.75,422.87s-11.89-5.56-12.56-15.69a.43.43,0,0,1,.66-.4C151.63,407.9,156.6,411.8,161.75,422.87Z" style="fill:#BA68C8"></path><path d="M151.76,410.56a11.82,11.82,0,0,1,1.52,1.75l3.48,4.39,3.48,4.37a12.65,12.65,0,0,1,1.41,1.85,10,10,0,0,1-1.67-1.63c-1-1.06-2.25-2.57-3.61-4.29s-2.54-3.31-3.36-4.48A10,10,0,0,1,151.76,410.56Z" style="fill:#263238"></path><path d="M185.42,371.3a1.16,1.16,0,0,1,0,.28c0,.23,0,.51,0,.84,0,.79-.08,1.85-.14,3.18-.15,2.8-.37,6.7-.62,11.36h0v0c-.84,4.74-3.26,10-6.51,15.11-2.38,3.77-4.88,7.19-7,10.37a72.47,72.47,0,0,0-5.27,8.71,36.83,36.83,0,0,0-2.47,6.4c-.21.78-.37,1.39-.46,1.81a2.42,2.42,0,0,1-.17.63,2.92,2.92,0,0,1,.08-.65c.06-.42.18-1,.37-1.84a33.35,33.35,0,0,1,2.34-6.5,69,69,0,0,1,5.2-8.81c2.14-3.21,4.63-6.63,7-10.38,3.23-5.08,5.63-10.26,6.51-14.93v0c.32-4.65.6-8.55.79-11.34.11-1.33.2-2.39.26-3.18,0-.33.06-.6.09-.83S185.4,371.29,185.42,371.3Z" style="fill:#263238"></path><path d="M178.34,401.13s5-12.12-1.3-20.05a.43.43,0,0,0-.76.14C175.72,383.25,174.68,389.48,178.34,401.13Z" style="fill:#BA68C8"></path><path d="M177.42,385.3a9.67,9.67,0,0,1,.4,2.29c.18,1.43.38,3.4.54,5.58s.23,4.17.23,5.6a10.54,10.54,0,0,1-.14,2.33,12,12,0,0,1-.21-2.32c-.11-1.6-.23-3.49-.37-5.57s-.28-4-.39-5.58A12.65,12.65,0,0,1,177.42,385.3Z" style="fill:#263238"></path><g style="opacity:0.30000000000000004"><path d="M178.34,401.13s5-12.12-1.3-20.05a.43.43,0,0,0-.76.14C175.72,383.25,174.68,389.48,178.34,401.13Z"></path></g><path d="M162.75,430.32s4-12.48-2.92-19.88a.43.43,0,0,0-.74.21C158.69,412.71,158.16,419,162.75,430.32Z" style="fill:#BA68C8"></path><path d="M160.56,414.62a11,11,0,0,1,.58,2.25c.29,1.4.65,3.35,1,5.52s.57,4.13.69,5.56a10.27,10.27,0,0,1,.05,2.33,11.32,11.32,0,0,1-.4-2.29c-.23-1.59-.51-3.46-.82-5.53s-.6-3.94-.84-5.53A10.68,10.68,0,0,1,160.56,414.62Z" style="fill:#263238"></path><g style="opacity:0.30000000000000004"><path d="M162.75,430.32s4-12.48-2.92-19.88a.43.43,0,0,0-.74.21C158.69,412.71,158.16,419,162.75,430.32Z"></path></g><path d="M184.75,386.32s10.75-7.52,9.66-17.61a.43.43,0,0,0-.72-.29C192.13,369.83,187.91,374.53,184.75,386.32Z" style="fill:#BA68C8"></path><g style="opacity:0.30000000000000004"><path d="M184.75,386.32s10.75-7.52,9.66-17.61a.43.43,0,0,0-.72-.29C192.13,369.83,187.91,374.53,184.75,386.32Z"></path></g><path d="M192.47,372.48a10.27,10.27,0,0,1-.9,2.14c-.61,1.3-1.5,3.07-2.54,5s-2,3.64-2.81,4.85a9.48,9.48,0,0,1-1.36,1.88,11.57,11.57,0,0,1,1.06-2.06l2.68-4.91,2.67-4.91A11.22,11.22,0,0,1,192.47,372.48Z" style="fill:#263238"></path><path d="M167.09,417.94s13-2,16.43-11.56a.43.43,0,0,0-.52-.57C181,406.39,175.12,408.75,167.09,417.94Z" style="fill:#BA68C8"></path><g style="opacity:0.30000000000000004"><path d="M167.09,417.94s13-2,16.43-11.56a.43.43,0,0,0-.52-.57C181,406.39,175.12,408.75,167.09,417.94Z"></path></g><path d="M180.11,408.91a10.19,10.19,0,0,1-1.74,1.54c-1.13.89-2.7,2.09-4.49,3.36s-3.43,2.37-4.66,3.12a10.25,10.25,0,0,1-2.05,1.09,11.92,11.92,0,0,1,1.86-1.38l4.57-3.23,4.56-3.24A12.11,12.11,0,0,1,180.11,408.91Z" style="fill:#263238"></path><polygon points="154.72 441.8 150.94 467.24 174.5 467.24 171.45 441.8 154.72 441.8" style="fill:#455a64"></polygon><path d="M172.39,449.68a89.79,89.79,0,0,1-9.5.25,89.79,89.79,0,0,1-9.5-.25c0-.13,4.25-.24,9.5-.24S172.39,449.55,172.39,449.68Z" style="fill:#263238"></path><path d="M172.86,451.71c0,.13-4.4.24-9.81.24s-9.82-.11-9.82-.24a96,96,0,0,1,9.82-.25A95.91,95.91,0,0,1,172.86,451.71Z" style="fill:#263238"></path></g><g id="freepik--speech-bubble--inject-59"><path d="M635.18,130.21a1.5,1.5,0,0,1,.4,0l1.16,0c.26,0,.54,0,.86,0l1,.14,1.2.18,1.33.33a21.52,21.52,0,0,1,6.5,2.83,23.11,23.11,0,0,1,6.71,6.54,22.57,22.57,0,0,1,3.87,13.82c0,.53,0,1.07-.1,1.61l-.24,1.61a23.14,23.14,0,0,1-2.18,6.39,24.5,24.5,0,0,1-4.18,5.74,23.72,23.72,0,0,1-6,4.32A21.88,21.88,0,0,1,638.2,176a14.12,14.12,0,0,1-2,.17,18.69,18.69,0,0,1-2,0,24.23,24.23,0,0,1-4-.5,23.35,23.35,0,0,1-7.88-3.32l.24,0-8,3.23-.48.19.14-.5,2.36-8.58,0,.21a23,23,0,0,1-4.28-9.8,20.91,20.91,0,0,1-.32-5,17.55,17.55,0,0,1,.23-2.42l.18-1.17c.08-.39.19-.76.28-1.14a22.94,22.94,0,0,1,9-13.05,21.73,21.73,0,0,1,5.33-2.81l1.2-.43,1.14-.29,1-.26c.33-.06.66-.1,1-.14.61-.08,1.14-.18,1.61-.21l1.18,0h.72a.87.87,0,0,1,.24,0l-.24,0-.72.06-1.17.07c-.47,0-1,.16-1.6.25a22.8,22.8,0,0,0-18.24,16.93c-.09.37-.21.73-.27,1.11l-.18,1.16a16.69,16.69,0,0,0-.21,2.36,20.63,20.63,0,0,0,.33,4.93,22.61,22.61,0,0,0,4.22,9.59l.07.1,0,.11c-.76,2.77-1.54,5.64-2.34,8.59l-.34-.31,8-3.23.13-.05.11.08a22.89,22.89,0,0,0,7.7,3.24,24.24,24.24,0,0,0,3.87.49,17.71,17.71,0,0,0,1.93,0,15.06,15.06,0,0,0,1.91-.16,21.37,21.37,0,0,0,7.17-2.19,23.4,23.4,0,0,0,5.89-4.22,24,24,0,0,0,4.1-5.61,22.65,22.65,0,0,0,2.16-6.25l.24-1.58c.08-.53.07-1.06.11-1.58a24.27,24.27,0,0,0,0-3.08,22.64,22.64,0,0,0-10.25-17,22,22,0,0,0-6.39-2.88l-1.32-.35-1.19-.19-1-.17-.86-.06-1.16-.09Z" style="fill:#455a64"></path><path d="M641.73,150.33,638.26,146a.4.4,0,0,0-.7.11L637,147.6c-6.09-1.81-9.43,3.49-9.43,3.49l2.33,1.64c2.54-3.92,6.16-2.65,6.16-2.65l-.49,1.28a.41.41,0,0,0,.45.55l5.47-.91A.42.42,0,0,0,641.73,150.33Z" style="fill:#BA68C8"></path><path d="M640.52,155.46c-2.38,3.43-5.47,2.7-6.12,2.51l.7-1.67a.19.19,0,0,0-.2-.26l-6.26.85a.19.19,0,0,0-.12.31l3.79,5a.19.19,0,0,0,.33,0l.74-1.77c6,1.89,9.41-3.23,9.41-3.23Z" style="fill:#BA68C8"></path></g><g id="freepik--Box--inject-59"><path d="M460,415.24l-1.39,25.65a1.74,1.74,0,0,1-1.72,1.64l-46.15.34a1.75,1.75,0,0,1-1.75-1.72l-.14-20a1.73,1.73,0,0,1,1.73-1.74l28.38,0a1.77,1.77,0,0,0,1.23-.5L445,414a1.8,1.8,0,0,1,1.22-.51l12-.08A1.72,1.72,0,0,1,460,415.24Z" style="fill:#BA68C8"></path><path d="M460,415.24l-1.39,25.65a1.74,1.74,0,0,1-1.72,1.64l-46.15.34a1.75,1.75,0,0,1-1.75-1.72l-.14-20a1.73,1.73,0,0,1,1.73-1.74l28.38,0a1.77,1.77,0,0,0,1.23-.5L445,414a1.8,1.8,0,0,1,1.22-.51l12-.08A1.72,1.72,0,0,1,460,415.24Z" style="opacity:0.30000000000000004"></path><rect x="408.88" y="416.24" width="50.43" height="30.14" transform="translate(871.34 859.41) rotate(179.58)" style="fill:#f5f5f5"></rect><path d="M463.23,418.73l-3.62,31.45a1.1,1.1,0,0,1-1.1,1l-49.14.36a1.1,1.1,0,0,1-1.12-1l-2.7-31.41a1.11,1.11,0,0,1,1.1-1.21l55.47-.41A1.11,1.11,0,0,1,463.23,418.73Z" style="fill:#BA68C8"></path><path d="M473.54,410.4l-1.39,25.65a1.73,1.73,0,0,1-1.72,1.64l-46.15.34a1.75,1.75,0,0,1-1.75-1.72l-.14-20a1.73,1.73,0,0,1,1.73-1.74l28.38,0a1.72,1.72,0,0,0,1.22-.5l4.9-4.9a1.77,1.77,0,0,1,1.21-.51l12-.08A1.72,1.72,0,0,1,473.54,410.4Z" style="fill:#BA68C8"></path><path d="M473.54,410.4l-1.39,25.65a1.73,1.73,0,0,1-1.72,1.64l-46.15.34a1.75,1.75,0,0,1-1.75-1.72l-.14-20a1.73,1.73,0,0,1,1.73-1.74l28.38,0a1.72,1.72,0,0,0,1.22-.5l4.9-4.9a1.77,1.77,0,0,1,1.21-.51l12-.08A1.72,1.72,0,0,1,473.54,410.4Z" style="opacity:0.30000000000000004"></path><rect x="422.46" y="411.4" width="50.43" height="30.14" transform="matrix(-1, 0.01, -0.01, -1, 898.47, 849.64)" style="fill:#f5f5f5"></rect><path d="M476.81,413.89l-3.62,31.45a1.11,1.11,0,0,1-1.1,1l-49.14.36a1.12,1.12,0,0,1-1.12-1l-2.71-31.41a1.13,1.13,0,0,1,1.11-1.21l55.47-.4A1.1,1.1,0,0,1,476.81,413.89Z" style="fill:#BA68C8"></path><path d="M476.81,413.89l-3.62,31.45a1.11,1.11,0,0,1-1.1,1l-49.14.36a1.12,1.12,0,0,1-1.12-1l-2.71-31.41a1.13,1.13,0,0,1,1.11-1.21l55.47-.4A1.1,1.1,0,0,1,476.81,413.89Z" style="opacity:0.30000000000000004"></path><path d="M488.85,416.41l-1.4,25.65a1.74,1.74,0,0,1-1.72,1.64l-46.15.33a1.72,1.72,0,0,1-1.74-1.72l-.15-20a1.74,1.74,0,0,1,1.73-1.75l28.39,0a1.73,1.73,0,0,0,1.22-.51l4.9-4.89a1.71,1.71,0,0,1,1.21-.51l12-.09A1.75,1.75,0,0,1,488.85,416.41Z" style="fill:#BA68C8"></path><rect x="437.76" y="417.4" width="50.43" height="30.14" transform="translate(929.11 861.54) rotate(179.58)" style="fill:#f5f5f5"></rect><path d="M492.12,419.89l-3.62,31.46a1.12,1.12,0,0,1-1.1,1l-49.15.36a1.11,1.11,0,0,1-1.12-1l-2.7-31.4a1.11,1.11,0,0,1,1.1-1.21l55.47-.41A1.12,1.12,0,0,1,492.12,419.89Z" style="fill:#BA68C8"></path><path d="M434.42,424.17V467.8h62.95V424.17ZM455,432a3.22,3.22,0,0,1,3.22-3.22H473.6a3.22,3.22,0,0,1,0,6.44H458.19A3.22,3.22,0,0,1,455,432Z" style="fill:#455a64"></path><path d="M400.49,424.17V467.8h33.93V424.17Z" style="fill:#263238"></path></g><g id="freepik--device-3--inject-59"><rect x="396.32" y="211.36" width="112.82" height="74.61" rx="1.52" style="fill:#263238"></rect><path d="M391.6,280.45H513.83a0,0,0,0,1,0,0v0A6.53,6.53,0,0,1,507.3,287H398.13a6.53,6.53,0,0,1-6.53-6.53v0A0,0,0,0,1,391.6,280.45Z" style="fill:#263238"></path><rect x="399.35" y="214.32" width="106.45" height="63" style="fill:#455a64"></rect><polygon points="441.61 280.44 443.12 282.86 464.47 282.86 465.88 280.44 441.61 280.44" style="fill:#455a64"></polygon><rect x="401.54" y="216.45" width="102.28" height="60.67" rx="3.27" style="fill:#ebebeb"></rect><rect x="401.54" y="220.9" width="102.28" height="56.22" style="fill:#fafafa"></rect><path d="M409.93,218.8a.82.82,0,0,1-1.64,0,.82.82,0,1,1,1.64,0Z" style="fill:#263238"></path><path d="M405,218.8a.82.82,0,0,1-1.64,0,.82.82,0,1,1,1.64,0Z" style="fill:#263238"></path><path d="M407.35,218.8a.81.81,0,0,1-.81.81.82.82,0,0,1-.82-.81.82.82,0,0,1,.82-.82A.82.82,0,0,1,407.35,218.8Z" style="fill:#263238"></path><path d="M508.17,280.45s-25,.07-55.92.07-55.93,0-55.93-.07,25-.08,55.93-.08S508.17,280.4,508.17,280.45Z" style="fill:#455a64"></path><rect x="408.63" y="249.22" width="23.34" height="1.56" style="fill:#e0e0e0"></rect><rect x="438.77" y="227.55" width="23.34" height="1.56" style="fill:#e0e0e0"></rect><path d="M496.83,233.36s-13,.07-29,.07-29,0-29-.07,13-.07,29-.07S496.83,233.32,496.83,233.36Z" style="fill:#e0e0e0"></path><path d="M496.83,236.77s-13,.07-29,.07-29,0-29-.07,13-.07,29-.07S496.83,236.73,496.83,236.77Z" style="fill:#e0e0e0"></path><path d="M496.83,240.18s-13,.07-29,.07-29,0-29-.07,13-.07,29-.07S496.83,240.14,496.83,240.18Z" style="fill:#e0e0e0"></path><path d="M496.83,243.59s-13,.07-29,.07-29,0-29-.07,13-.08,29-.08S496.83,243.55,496.83,243.59Z" style="fill:#e0e0e0"></path><path d="M496.83,247s-13,.07-29,.07-29,0-29-.07,13-.08,29-.08S496.83,247,496.83,247Z" style="fill:#e0e0e0"></path><path d="M461.44,250.41s-5.08.07-11.33.07-11.34,0-11.34-.07,5.08-.08,11.34-.08S461.44,250.37,461.44,250.41Z" style="fill:#e0e0e0"></path><path d="M496.4,257s-8.54.08-19.07.08-19.08,0-19.08-.08,8.54-.07,19.08-.07S496.4,257,496.4,257Z" style="fill:#e0e0e0"></path><path d="M496.4,260.64s-8.54.08-19.07.08-19.08,0-19.08-.08,8.54-.07,19.08-.07S496.4,260.6,496.4,260.64Z" style="fill:#e0e0e0"></path><path d="M496.4,264.26s-8.54.07-19.07.07-19.08,0-19.08-.07,8.54-.07,19.08-.07S496.4,264.22,496.4,264.26Z" style="fill:#e0e0e0"></path><path d="M496.4,267.88s-8.54.07-19.07.07-19.08,0-19.08-.07,8.54-.07,19.08-.07S496.4,267.84,496.4,267.88Z" style="fill:#e0e0e0"></path><path d="M432,256.68s-5.1.07-11.38.07-11.37,0-11.37-.07,5.09-.08,11.37-.08S432,256.64,432,256.68Z" style="fill:#e0e0e0"></path><path d="M432,259.52s-5.1.07-11.38.07-11.37,0-11.37-.07,5.09-.07,11.37-.07S432,259.48,432,259.52Z" style="fill:#e0e0e0"></path><path d="M432,262.36s-5.1.07-11.38.07-11.37,0-11.37-.07,5.09-.07,11.37-.07S432,262.32,432,262.36Z" style="fill:#e0e0e0"></path><path d="M432,265.2s-5.1.08-11.38.08-11.37,0-11.37-.08,5.09-.07,11.37-.07S432,265.16,432,265.2Z" style="fill:#e0e0e0"></path><path d="M432,268.05s-5.1.07-11.38.07-11.37,0-11.37-.07,5.09-.08,11.37-.08S432,268,432,268.05Z" style="fill:#e0e0e0"></path><rect x="438.76" y="255.3" width="16.56" height="16.02" style="fill:#f5f5f5"></rect><polygon points="440.05 269.95 444.63 261.7 448.37 266.97 450.65 264.17 454.04 269.95 440.05 269.95" style="fill:#ebebeb"></polygon><path d="M450,260.1a1.19,1.19,0,1,1-1.19-1.19A1.19,1.19,0,0,1,450,260.1Z" style="fill:#ebebeb"></path><path d="M454,270a.15.15,0,0,1,0-.06v-.19c0-.17,0-.41,0-.72,0-.64,0-1.56,0-2.72,0-2.34,0-5.68,0-9.68l.07.07h-14l.07-.07h0v7c0,2.25,0,4.37,0,6.32l-.07-.07,10.12,0,2.85,0h-2.8l-10.17,0H440V270c0-1.95,0-4.07,0-6.32v-7h0c-.07.06.09-.1.08-.09l14,0h.06v.06c0,4,0,7.37,0,9.72,0,1.16,0,2.07,0,2.71,0,.3,0,.54,0,.7V270Z" style="fill:#ebebeb"></path><rect x="409.07" y="224.88" width="22.46" height="21.73" style="fill:#f5f5f5"></rect><polygon points="410.81 244.75 417.02 233.57 422.11 240.72 425.19 236.92 429.79 244.75 410.81 244.75" style="fill:#e0e0e0"></polygon><path d="M424.27,231.39a1.62,1.62,0,1,1-1.62-1.61A1.61,1.61,0,0,1,424.27,231.39Z" style="fill:#e0e0e0"></path><path d="M429.79,244.81a.31.31,0,0,1,0-.09v-.25c0-.23,0-.56,0-1,0-.86,0-2.11,0-3.69,0-3.17,0-7.69-.05-13.12l.1.09-19,0s.2-.21.11-.11h0v4.86c0,1.6,0,3.16,0,4.68,0,3,0,5.92,0,8.57l-.09-.09,13.72,0,3.87,0h0l-3.85,0-13.78,0h-.09v-.09c0-2.65,0-5.52,0-8.57,0-1.52,0-3.08,0-4.68V226.7h0c-.09.1.13-.13.11-.11l19,0h.09v.09c0,5.45,0,10-.05,13.18,0,1.57,0,2.81,0,3.67,0,.41,0,.73,0,1v.32Z" style="fill:#e0e0e0"></path><rect x="430.64" y="227.41" width="43.06" height="43.07" style="fill:#fafafa"></rect><path d="M473.71,270.48a1.07,1.07,0,0,1,0-.21v-.61c0-.55,0-1.33,0-2.32,0-2.06,0-5,0-8.78,0-7.54-.07-18.28-.12-31.15l.23.23-43.06,0,.25-.25h0V239c0,3.8,0,7.52,0,11.13,0,7.23,0,14.06,0,20.32l-.23-.23,31.15.12,8.77.06,2.33,0,.6,0h-.55l-2.28,0-8.73.06-31.29.11h-.22v-.22c0-6.26,0-13.09,0-20.32,0-3.61,0-7.33,0-11.13v-11.6h0l.27-.27,43.06,0h.22v.22c-.05,12.93-.09,23.71-.11,31.29,0,3.74-.05,6.69-.06,8.73l0,2.28v.58C473.71,270.42,473.71,270.48,473.71,270.48Z" style="fill:#263238"></path><path d="M462.78,244.55l-5.46-6.79a.66.66,0,0,0-1.12.18l-.88,2.31c-9.61-2.86-14.86,5.5-14.86,5.5l3.67,2.59c4-6.18,9.7-4.19,9.7-4.19l-.77,2a.65.65,0,0,0,.71.88l8.61-1.45A.65.65,0,0,0,462.78,244.55Z" style="fill:#BA68C8"></path><path d="M460.87,252.64c-3.74,5.4-8.62,4.26-9.63,3.94l1.09-2.61a.3.3,0,0,0-.32-.41l-9.85,1.33a.3.3,0,0,0-.2.48l6,7.93a.3.3,0,0,0,.51-.07l1.18-2.8c9.39,3,14.82-5.09,14.82-5.09Z" style="fill:#BA68C8"></path><path d="M473.55,231.83c0,.14-9.61.26-21.46.26s-21.46-.12-21.46-.26,9.61-.26,21.46-.26S473.55,231.68,473.55,231.83Z" style="fill:#263238"></path><path d="M432.88,229.66a.38.38,0,1,1-.38-.38A.38.38,0,0,1,432.88,229.66Z" style="fill:#263238"></path><path d="M434.07,229.66a.38.38,0,1,1-.38-.38A.38.38,0,0,1,434.07,229.66Z" style="fill:#263238"></path><path d="M435.26,229.66a.38.38,0,0,1-.38.38.38.38,0,1,1,0-.76A.38.38,0,0,1,435.26,229.66Z" style="fill:#263238"></path></g><g id="freepik--device-2--inject-59"><path d="M389.29,182.14h-119a3.71,3.71,0,0,0-3.72,3.71v84.06a3.71,3.71,0,0,0,3.72,3.72H316a11.47,11.47,0,0,1-6.1,13.63h42.71s-10.17-3.48-7.55-13.63h44.28a3.71,3.71,0,0,0,3.71-3.72V185.85A3.71,3.71,0,0,0,389.29,182.14Z" style="fill:#BA68C8"></path><path d="M331.37,264.79a2.29,2.29,0,0,1-3.23,3.23l-.2-.2a2.29,2.29,0,0,1,3.23-3.23A.64.64,0,0,1,331.37,264.79Z" style="fill:#263238"></path><path d="M271.64,183.68H387.92a3,3,0,0,1,3,3v71.54a0,0,0,0,1,0,0H268.61a0,0,0,0,1,0,0V186.71A3,3,0,0,1,271.64,183.68Z" style="fill:#263238"></path><rect x="271.72" y="187.33" width="115.23" height="68.35" style="fill:#ebebeb"></rect><rect x="271.72" y="192.34" width="115.23" height="65.91" style="fill:#fafafa"></rect><path d="M281.17,190a.92.92,0,1,1-.92-.92A.92.92,0,0,1,281.17,190Z" style="fill:#f5f5f5"></path><path d="M275.59,190a.92.92,0,0,1-1.84,0,.92.92,0,0,1,1.84,0Z" style="fill:#f5f5f5"></path><path d="M278.27,190a.92.92,0,1,1-.92-.92A.92.92,0,0,1,278.27,190Z" style="fill:#f5f5f5"></path><rect x="279.71" y="224.25" width="26.29" height="1.76" style="fill:#e0e0e0"></rect><rect x="313.67" y="199.83" width="26.3" height="1.76" style="fill:#e0e0e0"></rect><path d="M379.07,206.38c0,.05-14.64.08-32.7.08s-32.7,0-32.7-.08,14.64-.08,32.7-.08S379.07,206.33,379.07,206.38Z" style="fill:#e0e0e0"></path><path d="M379.07,210.22c0,.05-14.64.08-32.7.08s-32.7,0-32.7-.08,14.64-.08,32.7-.08S379.07,210.18,379.07,210.22Z" style="fill:#e0e0e0"></path><path d="M379.07,214.06c0,.05-14.64.08-32.7.08s-32.7,0-32.7-.08,14.64-.08,32.7-.08S379.07,214,379.07,214.06Z" style="fill:#e0e0e0"></path><path d="M379.07,217.9s-14.64.08-32.7.08-32.7,0-32.7-.08,14.64-.08,32.7-.08S379.07,217.86,379.07,217.9Z" style="fill:#e0e0e0"></path><path d="M379.07,221.74s-14.64.09-32.7.09-32.7,0-32.7-.09,14.64-.08,32.7-.08S379.07,221.7,379.07,221.74Z" style="fill:#e0e0e0"></path><path d="M339.2,225.58s-5.72.09-12.76.09-12.77,0-12.77-.09,5.71-.08,12.77-.08S339.2,225.54,339.2,225.58Z" style="fill:#e0e0e0"></path><path d="M378.6,233s-9.63.08-21.5.08-21.49,0-21.49-.08,9.62-.08,21.49-.08S378.6,233,378.6,233Z" style="fill:#e0e0e0"></path><path d="M378.6,237.12s-9.63.08-21.5.08-21.49,0-21.49-.08,9.62-.09,21.49-.09S378.6,237.07,378.6,237.12Z" style="fill:#e0e0e0"></path><path d="M378.6,241.19c0,.05-9.63.09-21.5.09s-21.49,0-21.49-.09,9.62-.08,21.49-.08S378.6,241.15,378.6,241.19Z" style="fill:#e0e0e0"></path><path d="M378.6,245.27s-9.63.08-21.5.08-21.49,0-21.49-.08,9.62-.08,21.49-.08S378.6,245.23,378.6,245.27Z" style="fill:#e0e0e0"></path><path d="M306.07,232.65s-5.74.08-12.81.08-12.82,0-12.82-.08,5.74-.08,12.82-.08S306.07,232.6,306.07,232.65Z" style="fill:#e0e0e0"></path><path d="M306.07,235.85c0,.05-5.74.08-12.81.08s-12.82,0-12.82-.08,5.74-.08,12.82-.08S306.07,235.81,306.07,235.85Z" style="fill:#e0e0e0"></path><path d="M306.07,239.05s-5.74.09-12.81.09-12.82,0-12.82-.09,5.74-.08,12.82-.08S306.07,239,306.07,239.05Z" style="fill:#e0e0e0"></path><path d="M306.07,242.25c0,.05-5.74.09-12.81.09s-12.82,0-12.82-.09,5.74-.08,12.82-.08S306.07,242.21,306.07,242.25Z" style="fill:#e0e0e0"></path><path d="M306.07,245.46s-5.74.08-12.81.08-12.82,0-12.82-.08,5.74-.09,12.82-.09S306.07,245.41,306.07,245.46Z" style="fill:#e0e0e0"></path><rect x="313.65" y="231.09" width="18.66" height="18.05" style="fill:#f5f5f5"></rect><polygon points="315.1 247.6 320.26 238.31 324.48 244.25 327.05 241.09 330.86 247.6 315.1 247.6" style="fill:#ebebeb"></polygon><circle cx="324.94" cy="236.5" r="1.34" style="fill:#ebebeb"></circle><path d="M330.86,247.65v-.29c0-.19,0-.46,0-.81,0-.71,0-1.75,0-3.06,0-2.64,0-6.39,0-10.9l.07.07-15.76,0,.09-.09h0v7.93c0,2.53,0,4.92,0,7.12l-.08-.08,11.4,0,3.21,0h0l-3.19,0-11.45,0H315v-.08c0-2.2,0-4.59,0-7.12V232.6h0l.09-.09h15.84v.08c0,4.53,0,8.3,0,10.95,0,1.3,0,2.33,0,3,0,.35,0,.61,0,.8v.2S330.87,247.65,330.86,247.65Z" style="fill:#ebebeb"></path><rect x="280.2" y="196.83" width="25.3" height="24.48" style="fill:#f5f5f5"></rect><polygon points="282.16 219.21 289.16 206.61 294.89 214.67 298.37 210.39 303.54 219.21 282.16 219.21" style="fill:#e0e0e0"></polygon><path d="M297.33,204.16a1.82,1.82,0,1,1-1.82-1.82A1.82,1.82,0,0,1,297.33,204.16Z" style="fill:#e0e0e0"></path><path d="M303.54,219.28v-.1c0-.07,0-.17,0-.29s0-.62,0-1.1c0-1,0-2.37,0-4.16,0-3.57,0-8.66-.05-14.78l.1.11H282.17l.11-.11h0v10.76c0,3.43,0,6.67,0,9.65l-.11-.11,15.46.06,4.36,0h0l-4.34,0-15.53,0h-.1v-.1c0-3,0-6.22,0-9.65,0-1.72,0-3.48,0-5.28v-5.48h0l.13-.13,21.37,0h.11v.1c0,6.14,0,11.26-.06,14.85,0,1.77,0,3.17,0,4.13,0,.47,0,.83,0,1.09v.27C303.55,219.25,303.55,219.28,303.54,219.28Z" style="fill:#e0e0e0"></path><rect x="307.25" y="196.15" width="49.29" height="49.29" style="fill:#fafafa"></rect><path d="M356.54,245.44a1.1,1.1,0,0,1,0-.24c0-.17,0-.4,0-.69,0-.62,0-1.51,0-2.66,0-2.34,0-5.73-.05-10,0-8.63-.07-20.92-.12-35.66l.23.22-49.29,0c-.06.05.49-.49.26-.25h0v3.35c0,1.11,0,2.23,0,3.34v19.33c0,8.27,0,16.09,0,23.25l-.22-.22,35.66.11,10,.06,2.66,0h.71l-.66,0-2.62,0-10,.06-35.8.12H307v-.23c0-7.16,0-15,0-23.25V202.86c0-1.11,0-2.23,0-3.34v-3.35h0l.27-.27,49.29,0h.22v.23c-.05,14.8-.09,27.14-.11,35.8,0,4.29,0,7.66-.06,10,0,1.13,0,2,0,2.62,0,.28,0,.5,0,.66S356.54,245.44,356.54,245.44Z" style="fill:#263238"></path><path d="M344,215.77,337.78,208a.75.75,0,0,0-1.28.2l-1,2.64c-11-3.27-17,6.3-17,6.3l4.2,3c4.58-7.08,11.11-4.79,11.11-4.79l-.89,2.31a.74.74,0,0,0,.82,1l9.86-1.65A.74.74,0,0,0,344,215.77Z" style="fill:#BA68C8"></path><path d="M341.84,225c-4.28,6.18-9.86,4.87-11,4.52l1.25-3a.34.34,0,0,0-.36-.47l-11.28,1.53a.35.35,0,0,0-.23.55l6.84,9.07a.34.34,0,0,0,.59-.07l1.34-3.21c10.75,3.41,17-5.82,17-5.82Z" style="fill:#BA68C8"></path><path d="M356.36,201.2c0,.15-11,.26-24.56.26s-24.57-.11-24.57-.26,11-.26,24.57-.26S356.36,201.06,356.36,201.2Z" style="fill:#263238"></path><circle cx="309.38" cy="198.72" r="0.44" style="fill:#263238"></circle><circle cx="310.73" cy="198.72" r="0.44" style="fill:#263238"></circle><circle cx="312.09" cy="198.72" r="0.44" style="fill:#263238"></circle></g><g id="freepik--device-1--inject-59"><rect x="220.82" y="226.79" width="42.24" height="60.62" rx="3.22" style="fill:#BA68C8"></rect><rect x="222.15" y="230.93" width="39.58" height="50.62" style="fill:#fafafa"></rect><path d="M243.13,283.17a1.68,1.68,0,0,1-2.38,2.37A1.68,1.68,0,0,1,243.13,283.17Z" style="fill:#263238"></path><rect x="235.58" y="228.53" width="12.72" height="0.67" rx="0.33" style="fill:#263238"></rect><rect x="233.86" y="251.65" width="16.41" height="1.16" style="fill:#e0e0e0"></rect><path d="M256.09,256s-6.28,0-14,0-14,0-14,0,6.28-.06,14-.06S256.09,255.94,256.09,256Z" style="fill:#e0e0e0"></path><path d="M256.09,258.08s-6.28.05-14,.05-14,0-14-.05,6.28-.06,14-.06S256.09,258.05,256.09,258.08Z" style="fill:#e0e0e0"></path><path d="M256.09,260.18s-6.28.06-14,.06-14,0-14-.06,6.28-.05,14-.05S256.09,260.15,256.09,260.18Z" style="fill:#e0e0e0"></path><path d="M256.09,262.29s-6.28,0-14,0-14,0-14,0,6.28-.05,14-.05S256.09,262.26,256.09,262.29Z" style="fill:#e0e0e0"></path><path d="M256.09,264.4s-6.28.05-14,.05-14,0-14-.05,6.28-.06,14-.06S256.09,264.37,256.09,264.4Z" style="fill:#e0e0e0"></path><rect x="233.78" y="232.64" width="15.79" height="16.11" style="fill:#f5f5f5"></rect><polygon points="235 247.37 239.37 239.08 242.94 244.38 245.11 241.57 248.34 247.37 235 247.37" style="fill:#e0e0e0"></polygon><ellipse cx="243.33" cy="237.47" rx="1.14" ry="1.2" style="fill:#e0e0e0"></ellipse><path d="M248.34,247.42v-1c0-.64,0-1.57,0-2.74,0-2.35,0-5.7,0-9.73l.06.07H235s.14-.15.08-.07h0v1.8c0,.6,0,1.2,0,1.79v9.83l-.07-.07,9.65,0,2.72,0h0l-2.7,0-9.69,0h-.07v-9.9c0-.59,0-1.19,0-1.79V234h0c-.06.07.1-.1.08-.09l13.34,0h.07V234c0,4.05,0,7.41,0,9.77,0,1.17,0,2.09,0,2.72,0,.31,0,.55,0,.72v.18A.28.28,0,0,0,248.34,247.42Z" style="fill:#e0e0e0"></path><rect x="234.46" y="265.45" width="15.79" height="16.11" style="fill:#f5f5f5"></rect><polygon points="235.69 280.18 240.06 271.89 243.63 277.19 245.8 274.37 249.03 280.18 235.69 280.18" style="fill:#e0e0e0"></polygon><ellipse cx="244.01" cy="270.27" rx="1.14" ry="1.2" style="fill:#e0e0e0"></ellipse><path d="M249,280.22V280c0-.17,0-.42,0-.73,0-.64,0-1.56,0-2.73,0-2.36,0-5.71,0-9.73l.06.07H235.69s.14-.15.07-.08h0v7.08c0,2.26,0,4.39,0,6.35l-.06-.07,9.64,0h2.75l-2.7,0-9.69,0h-.07v-.07c0-2,0-4.09,0-6.35v-7.08h0c-.06.07.09-.1.08-.08h13.4v.07c0,4,0,7.41,0,9.77,0,1.17,0,2.08,0,2.72v1Z" style="fill:#e0e0e0"></path><rect x="228.67" y="241.78" width="26.54" height="26.54" style="fill:#fafafa"></rect><path d="M255.22,268.33a3.87,3.87,0,0,1,0-.52c0-.36,0-.83,0-1.44,0-1.29,0-3.11-.06-5.42,0-4.66-.07-11.26-.12-19.17l.23.23-26.54,0,.25-.25h0v14c0,4.45,0,8.66,0,12.52l-.23-.23,19.18.12,5.41.06,1.45,0,.51,0a3.81,3.81,0,0,1-.47,0l-1.39,0-5.37.06-19.32.11h-.22v-.22c0-3.86,0-8.07,0-12.52V249c0-1.18,0-2.36,0-3.55v-3.59h0l.27-.27,26.54,0h.22v.22c0,8-.08,14.61-.11,19.32,0,2.28-.05,4.09-.06,5.37,0,.58,0,1,0,1.39A3.81,3.81,0,0,1,255.22,268.33Z" style="fill:#263238"></path><path d="M248.48,252.35l-3.36-4.19a.4.4,0,0,0-.69.11l-.54,1.43c-5.93-1.76-9.16,3.39-9.16,3.39l2.26,1.59c2.46-3.81,6-2.58,6-2.58l-.48,1.25a.4.4,0,0,0,.44.54l5.31-.9A.39.39,0,0,0,248.48,252.35Z" style="fill:#BA68C8"></path><path d="M247.31,257.33c-2.31,3.33-5.32,2.63-5.94,2.43l.67-1.61a.18.18,0,0,0-.19-.25l-6.08.82a.18.18,0,0,0-.12.29l3.69,4.89a.18.18,0,0,0,.31,0l.73-1.73c5.78,1.84,9.13-3.13,9.13-3.13Z" style="fill:#BA68C8"></path><path d="M255.12,244.5c0,.15-5.92.27-13.23.27s-13.22-.12-13.22-.27,5.92-.26,13.22-.26S255.12,244.36,255.12,244.5Z" style="fill:#263238"></path><path d="M230.06,243.17a.23.23,0,0,1-.24.23.23.23,0,0,1-.23-.23.23.23,0,0,1,.23-.24A.24.24,0,0,1,230.06,243.17Z" style="fill:#263238"></path><path d="M230.79,243.17a.23.23,0,0,1-.24.23.23.23,0,0,1-.23-.23.23.23,0,0,1,.23-.24A.24.24,0,0,1,230.79,243.17Z" style="fill:#263238"></path><path d="M231.52,243.17a.23.23,0,0,1-.24.23.23.23,0,0,1-.23-.23.23.23,0,0,1,.23-.24A.24.24,0,0,1,231.52,243.17Z" style="fill:#263238"></path></g><g id="freepik--Desk--inject-59"><rect x="506.27" y="297.45" width="10.41" height="170.18" style="fill:#455a64"></rect><rect x="214.51" y="297.45" width="10.41" height="170.18" style="fill:#455a64"></rect><rect x="170.79" y="287" width="403.67" height="10.45" style="fill:#455a64"></rect><rect x="389.87" y="297.45" width="116.41" height="29.2" style="fill:#455a64"></rect><path d="M528.59,298.21c0,.14-80.1.09-178.89-.12s-178.91-.5-178.91-.64,80.09-.09,178.91.12S528.59,298.07,528.59,298.21Z" style="fill:#263238"></path><path d="M396.94,326.64c-.15,0-.26-6.49-.26-14.49s.11-14.49.26-14.49.26,6.49.26,14.49S397.08,326.64,396.94,326.64Z" style="fill:#263238"></path><path d="M498.23,321.11c0,.14-22.74.14-50.78,0s-50.79-.39-50.79-.53,22.74-.14,50.79,0S498.23,321,498.23,321.11Z" style="fill:#263238"></path><path d="M498.23,326.65c-.14,0-.26-6.12-.26-13.67s.12-13.67.26-13.67.26,6.12.26,13.67S498.38,326.65,498.23,326.65Z" style="fill:#263238"></path><path d="M506.79,353.69c-.15,0-.26-12.36-.26-27.6s.11-27.6.26-27.6.26,12.35.26,27.6S506.93,353.69,506.79,353.69Z" style="fill:#263238"></path><path d="M452.72,306.31a3.79,3.79,0,1,1-3.79-3.78A3.79,3.79,0,0,1,452.72,306.31Z" style="fill:#263238"></path></g><g id="freepik--Character--inject-59"><path d="M587,216.37l1.36,10.76,16.4-14,9,2.16s-9.25,19.42-16.55,27.12-11.25,8.78-14,8.9c-3.79.17-5.53-4.45-5.53-4.45L576,220.15Z" style="fill:#aa6550"></path><path d="M588.34,226.84a7.18,7.18,0,0,0-1.16,2.68,7.35,7.35,0,0,0-.38,2.89,24.24,24.24,0,0,0,.76-2.79A23,23,0,0,0,588.34,226.84Z" style="fill:#874232"></path><path d="M606.39,185.89h12.34a3.13,3.13,0,0,1,2.87,3.93L609.18,214a2.8,2.8,0,0,1-2.5,1.53l-15,0a2.16,2.16,0,0,1-1.64-3.19l12-23.67A4.91,4.91,0,0,1,606.39,185.89Z" style="fill:#455a64"></path><path d="M607.22,187.34h12.35a2.07,2.07,0,0,1,1.84,3L609.29,214a2.8,2.8,0,0,1-2.5,1.53H591.91a1.22,1.22,0,0,1-1.09-1.76l12-23.68A4.93,4.93,0,0,1,607.22,187.34Z" style="fill:#263238"></path><path d="M608.27,197.25l7.51,3,1.61,6.05-3.62,9-13.27,1.94,3.89-4-.5-3.46s-3.71-1.16-3.8-1.73.46-2.46,1-2.56a28.41,28.41,0,0,1,4.45,1.36s-4.6-3.64-4.47-4.23.62-2.08,1.54-2.24,8.34,3.33,8.34,3.33l1.2,2.75,1.05-4.4S606.64,200.24,608.27,197.25Z" style="fill:#aa6550"></path><path d="M607.32,211.44s.19-.26.26-.75a3.92,3.92,0,0,0-.23-1.89,4,4,0,0,0-1.06-1.59c-.37-.33-.66-.44-.68-.4a8.39,8.39,0,0,1,1.38,2.12A8,8,0,0,1,607.32,211.44Z" style="fill:#874232"></path><path d="M610.89,210.13a17.67,17.67,0,0,1-.29-2,8.93,8.93,0,0,0-.38-2.18,3.16,3.16,0,0,0-.69-1.16,3.24,3.24,0,0,0-1.23-.77c-1.8-.66-3.41-1.18-4.6-1.57a10.73,10.73,0,0,0-1.94-.53,10.16,10.16,0,0,0,1.85.79c1.15.45,2.78,1,4.54,1.66a3.26,3.26,0,0,1,1.1.68,2.89,2.89,0,0,1,.63,1,9,9,0,0,1,.44,2.09A4.1,4.1,0,0,0,610.89,210.13Z" style="fill:#874232"></path><path d="M612.62,208.77a3.07,3.07,0,0,0,0-1.48c-.13-.8-.32-1.44-.43-1.42s-.08.68.05,1.48S612.51,208.79,612.62,208.77Z" style="fill:#874232"></path><path d="M612.82,191.91a1.58,1.58,0,0,1-3.15,0,1.58,1.58,0,1,1,3.15,0Z" style="fill:#fafafa"></path><path d="M612.73,462l-2.9-10.13-19.09,1,2.92,14.89h1.19c5.32,0,27-.32,30.51-1.59C629.24,464.76,612.73,462,612.73,462Z" style="fill:#BA68C8"></path><g style="opacity:0.4"><path d="M600.61,467.22a6.66,6.66,0,0,0-2.67-4,8.63,8.63,0,0,0-5.36-1l1.08,5.23Z"></path></g><g style="opacity:0.4"><path d="M620.82,463.62s5.8,1.34,5.14,2.32-22.59,2.14-32.3,1.81v-.43l25.59-1.14S619.7,463.72,620.82,463.62Z"></path></g><path d="M593.36,467.32a1.25,1.25,0,0,0,.33,0h.95l3.5,0c3-.05,7-.17,11.54-.41s8.57-.53,11.51-.79l3.49-.33.94-.11a1.23,1.23,0,0,0,.33-.05,1.19,1.19,0,0,0-.33,0l-1,.06-3.49.25c-2.94.22-7,.5-11.51.73s-8.58.39-11.53.48l-3.5.11-.95,0Z" style="fill:#263238"></path><path d="M619.26,466.48a7.68,7.68,0,0,1,.56-1.7,8.47,8.47,0,0,1,1.12-1.4,3.12,3.12,0,0,0-1.68,3.1Z" style="fill:#263238"></path><path d="M613.44,463.9c.06,0,.31-.31.57-.76s.42-.86.36-.89-.31.32-.56.77A2.16,2.16,0,0,0,613.44,463.9Z" style="fill:#263238"></path><path d="M611.84,463.16s.34-.17.66-.48.53-.61.48-.66-.33.18-.65.49S611.8,463.12,611.84,463.16Z" style="fill:#263238"></path><path d="M610.76,461.4a2.22,2.22,0,0,0,1,.08c.56,0,1-.09,1-.16a2.25,2.25,0,0,0-1-.07A2.4,2.4,0,0,0,610.76,461.4Z" style="fill:#263238"></path><path d="M610.36,460.14a1.88,1.88,0,0,0,1.13.27,2,2,0,0,0,1.15-.21,5.17,5.17,0,0,0-1.14,0A7.49,7.49,0,0,0,610.36,460.14Z" style="fill:#263238"></path><path d="M614,462.19a3.49,3.49,0,0,0,1.24-.07,6.8,6.8,0,0,0,1.3-.36,3.44,3.44,0,0,0,.73-.35.68.68,0,0,0,.29-.4.48.48,0,0,0-.22-.48,2.29,2.29,0,0,0-3.12,1.65c0,.22,0,.34,0,.34a3.43,3.43,0,0,1,.5-1.08,2.24,2.24,0,0,1,1-.74,1.9,1.9,0,0,1,1.48,0c.2.13.14.37-.07.51a3.56,3.56,0,0,1-.68.33,7.49,7.49,0,0,1-1.26.4C614.47,462.13,614,462.16,614,462.19Z" style="fill:#263238"></path><path d="M614.33,462.24a1.22,1.22,0,0,0,.09-.87,2,2,0,0,0-.38-.88,1.24,1.24,0,0,0-1.06-.57.48.48,0,0,0-.35.59,1.33,1.33,0,0,0,.24.54,3.75,3.75,0,0,0,.62.71c.41.36.72.49.73.46s-.26-.2-.62-.58a4,4,0,0,1-.55-.71c-.19-.25-.33-.71,0-.79s.64.25.84.48a2,2,0,0,1,.39.79A4.82,4.82,0,0,1,614.33,462.24Z" style="fill:#263238"></path><path d="M593.48,462.05s.54-.08,1.42,0a6,6,0,0,1,5.24,3.74c.33.81.39,1.36.44,1.36a1.45,1.45,0,0,0,0-.39,6.11,6.11,0,0,0-.27-1,5.83,5.83,0,0,0-5.39-3.84,4.79,4.79,0,0,0-1,.08C593.6,462,593.47,462,593.48,462.05Z" style="fill:#263238"></path><path d="M595,454a36.58,36.58,0,0,0,0,3.95,35,35,0,0,0,.28,4,34,34,0,0,0,0-4A32.08,32.08,0,0,0,595,454Z" style="fill:#263238"></path><path d="M602.93,465.22a10.88,10.88,0,0,0,2.82.13,10.65,10.65,0,0,0,2.79-.37c0-.07-1.26.08-2.8.14S602.93,465.16,602.93,465.22Z" style="fill:#263238"></path><path d="M599.16,465.42c0,.05.12.26.26.54s.23.53.3.52.08-.3-.09-.63S599.2,465.37,599.16,465.42Z" style="fill:#263238"></path><path d="M597.65,463.73s.09.24.3.43.42.31.46.26-.09-.24-.3-.43S597.7,463.68,597.65,463.73Z" style="fill:#263238"></path><path d="M595.58,463c0,.06.27.05.56.13s.5.23.55.18-.13-.3-.49-.4S595.56,463,595.58,463Z" style="fill:#263238"></path><path d="M594.11,462.72c0,.07.1.16.26.21s.31.05.33,0-.09-.16-.25-.21S594.13,462.66,594.11,462.72Z" style="fill:#263238"></path><path d="M606.29,435.2l4.91-9-16.84-9.29L587.05,430l1,.64c4.51,2.83,23.1,14,26.73,14.81C618.82,446.32,606.29,435.2,606.29,435.2Z" style="fill:#BA68C8"></path><g style="opacity:0.4"><path d="M593.22,433.25a6.68,6.68,0,0,0-.16-4.78,6.5,6.5,0,0,0-3.26-3.39l-2.6,4.7Z"></path></g><g style="opacity:0.4"><path d="M612.28,440.88s4.21,4.22,3.13,4.7-20.3-10.14-28.36-15.57l.23-.36,22.31,12.58S611.27,440.38,612.28,440.88Z"></path></g><path d="M587,429.49a1.31,1.31,0,0,0,.27.19l.81.51,3,1.83c2.54,1.52,6.06,3.57,10,5.76s7.56,4.08,10.19,5.42l3.13,1.56.86.41.3.13s-.09-.07-.28-.17l-.84-.45-3.1-1.63c-2.61-1.38-6.21-3.3-10.15-5.48s-7.48-4.21-10-5.7l-3-1.75-.83-.48Z" style="fill:#263238"></path><path d="M609.44,442.49a8.13,8.13,0,0,1,1.38-1.15,7.53,7.53,0,0,1,1.69-.59,2.55,2.55,0,0,0-1.8.39A2.59,2.59,0,0,0,609.44,442.49Z" style="fill:#263238"></path><path d="M605.87,437.22c0,.06.43-.1.89-.35s.8-.5.77-.56a2.24,2.24,0,0,0-.89.36C606.18,436.92,605.84,437.17,605.87,437.22Z" style="fill:#263238"></path><path d="M604.9,435.75c0,.06.38,0,.82-.07s.77-.23.76-.29-.38,0-.82.06S604.89,435.69,604.9,435.75Z" style="fill:#263238"></path><path d="M604.92,433.68c0,.06.33.33.82.6a2.32,2.32,0,0,0,.93.4c0-.06-.34-.33-.82-.6A2.5,2.5,0,0,0,604.92,433.68Z" style="fill:#263238"></path><path d="M605.24,432.4s.28.47.83.83a1.88,1.88,0,0,0,1.08.42,6.36,6.36,0,0,0-1-.62C605.67,432.69,605.29,432.35,605.24,432.4Z" style="fill:#263238"></path><path d="M607.25,436.07a3.67,3.67,0,0,0,1.09.59,6.65,6.65,0,0,0,1.29.38,3.9,3.9,0,0,0,.81.1.71.71,0,0,0,.45-.19.5.5,0,0,0,.08-.52,2.28,2.28,0,0,0-3.53-.25.71.71,0,0,0-.19.27,3.8,3.8,0,0,1,1-.65,2.26,2.26,0,0,1,1.26-.09,2,2,0,0,1,1.24.8c.1.23-.08.39-.33.4a3.19,3.19,0,0,1-.75-.08,8.23,8.23,0,0,1-1.28-.32C607.68,436.26,607.27,436,607.25,436.07Z" style="fill:#263238"></path><path d="M607.5,436.28s.32-.17.54-.68a1.93,1.93,0,0,0,.14-1,1.26,1.26,0,0,0-.59-1.05.5.5,0,0,0-.61.32,1.37,1.37,0,0,0-.09.58,4.63,4.63,0,0,0,.15.94,1.88,1.88,0,0,0,.38.78s-.11-.31-.22-.82a4.63,4.63,0,0,1-.09-.9c0-.31.1-.78.4-.68s.41.55.46.86a2.17,2.17,0,0,1-.08.87A4,4,0,0,1,607.5,436.28Z" style="fill:#263238"></path><path d="M589.91,425.08s.51.22,1.22.73a6.27,6.27,0,0,1,2.1,2.62,6.35,6.35,0,0,1,.37,3.33c-.15.86-.39,1.36-.35,1.38s.09-.11.19-.34a5.79,5.79,0,0,0,.32-1,5.86,5.86,0,0,0-2.54-6.12,4.39,4.39,0,0,0-.94-.48C590.05,425.1,589.92,425.06,589.91,425.08Z" style="fill:#263238"></path><path d="M595.53,419a33,33,0,0,0-2.06,3.37,31.3,31.3,0,0,0-1.85,3.5,35.93,35.93,0,0,0,2-3.38A36.74,36.74,0,0,0,595.53,419Z" style="fill:#263238"></path><path d="M596.25,432.78a10.89,10.89,0,0,0,2.32,1.6,10.74,10.74,0,0,0,2.57,1.16c0-.06-1.11-.6-2.45-1.36S596.29,432.72,596.25,432.78Z" style="fill:#263238"></path><path d="M593,431c-.06,0,0,.28-.06.6s-.09.57,0,.6.23-.22.26-.58S593,430.93,593,431Z" style="fill:#263238"></path><path d="M592.57,428.72c-.07,0-.06.25,0,.52s.19.48.25.46,0-.25,0-.52S592.63,428.7,592.57,428.72Z" style="fill:#263238"></path><path d="M591.18,427c0,.06.2.18.4.4s.31.46.37.44,0-.32-.2-.59S591.19,427,591.18,427Z" style="fill:#263238"></path><path d="M590.09,426s0,.18.11.31.24.21.29.17,0-.18-.11-.31S590.14,426,590.09,426Z" style="fill:#263238"></path><path d="M588.51,462.17,614,458.56,590.72,355.09l-16-100.8-42.42.24L526.17,284a36.76,36.76,0,0,0,3.35,24.39l22.74,44C552.13,355.09,588.51,462.17,588.51,462.17Z" style="fill:#263238"></path><path d="M577.2,254.29l52.89,73.33a39.2,39.2,0,0,1,4.81,37l-25,65.29-23.41-12.13,20.41-63.59-40-36.09-5.94-63.82Z" style="fill:#263238"></path><path d="M608.41,432.55s0-.15-.13-.45-.21-.77-.36-1.34c-.31-1.2-.75-2.94-1.31-5.16-1.11-4.52-2.7-11-4.66-19-3.88-16.07-9.13-38.31-14.82-62.9L579.2,309c-1.18-5.33-2.31-10.4-3.37-15.15s-1.89-9.2-2.72-13.25c-1.64-8.09-3-14.64-3.9-19.2-.45-2.25-.79-4-1-5.22-.1-.58-.19-1-.25-1.36a4.14,4.14,0,0,1-.07-.47s0,.15.12.46.18.77.31,1.35c.26,1.21.64,3,1.13,5.2,1,4.55,2.35,11.09,4.06,19.16l2.78,13.24c1.07,4.74,2.22,9.81,3.42,15.14,2.45,10.66,5.14,22.37,8,34.67Z" style="fill:#455a64"></path><path d="M613.65,348.41c.09.12-1.57,1.34-3.4,3.06s-3.17,3.28-3.29,3.18a17.6,17.6,0,0,1,6.69-6.24Z" style="fill:#455a64"></path><path d="M615.74,353.33a45.69,45.69,0,0,1-9.7,1.14,47.48,47.48,0,0,1,9.7-1.14Z" style="fill:#455a64"></path><path d="M550.53,260.6a2.09,2.09,0,0,1,.12.78,7.57,7.57,0,0,1-.22,2.13,8.73,8.73,0,0,1-11.07,6.41,7.66,7.66,0,0,1-2-.88c-.43-.27-.63-.46-.61-.49a19,19,0,0,0,2.66,1,8.7,8.7,0,0,0,10.62-6.14A17.63,17.63,0,0,0,550.53,260.6Z" style="fill:#455a64"></path><path d="M573.7,180.09s8.95,2.59,12.24,13.39,7.18,21.89,7.18,21.89l-14.29,3.82Z" style="fill:#BA68C8"></path><path d="M582,204.58a33.66,33.66,0,0,1,1.47,7.93,19,19,0,0,1-4.61,11.91l-.06.08-1.58,29.79-44.91.24L532,241.86l-3-25-2.85,8-20.57-13.37,4.22-10.06c1.72-4.32,4.2-9.43,7-12.78a27.64,27.64,0,0,1,15.39-9.19c4.29-.95,8.45-1.48,8.45-1.48l18.74.21c4.28,0,14.42,1.87,14.42,1.87L582,204.58" style="fill:#BA68C8"></path><path d="M576.9,227.88a4.33,4.33,0,0,0,.85-.86,19,19,0,0,0,1.91-2.66,23.58,23.58,0,0,0,1.81-20.91A21.08,21.08,0,0,0,580,200.5a4.16,4.16,0,0,0-.69-1c-.1,0,.81,1.5,1.72,4.08a24.83,24.83,0,0,1-1.77,20.55C578,226.53,576.81,227.81,576.9,227.88Z" style="fill:#263238"></path><path d="M541.11,229.51a2.35,2.35,0,0,0,.86.21,14.55,14.55,0,0,0,2.42.12,16.6,16.6,0,0,0,13.43-7.7,14.19,14.19,0,0,0,1.12-2.15,2.65,2.65,0,0,0,.26-.85c-.1,0-.58,1.12-1.73,2.76a17.64,17.64,0,0,1-13.1,7.51C542.37,229.58,541.12,229.4,541.11,229.51Z" style="fill:#263238"></path><path d="M526.68,181.46c0,.07.57.06,1.56.3a9.42,9.42,0,0,1,3.76,2,11.9,11.9,0,0,1,3.52,5.16,16,16,0,0,1,.49,7.68,32,32,0,0,1-2.31,7.48c-1,2.22-1.94,4.18-2.72,5.85s-1.36,3-1.71,4a7.19,7.19,0,0,0-.47,1.54,11.84,11.84,0,0,0,.69-1.45c.42-.94,1-2.28,1.88-3.92s1.84-3.59,2.83-5.82a30.74,30.74,0,0,0,2.4-7.61,16.16,16.16,0,0,0-.55-7.95,12,12,0,0,0-3.78-5.31,9.09,9.09,0,0,0-4-1.87,5.93,5.93,0,0,0-1.2-.1C526.82,181.43,526.68,181.44,526.68,181.46Z" style="fill:#263238"></path><path d="M547.82,212.17a24.25,24.25,0,0,1-3.5-3.61,25.53,25.53,0,0,1-3.11-3.94,23.85,23.85,0,0,1,3.5,3.6A24.6,24.6,0,0,1,547.82,212.17Z" style="fill:#fafafa"></path><path d="M562,199.41a8.67,8.67,0,0,1-2,2.22,9,9,0,0,1-2.38,1.83,8.91,8.91,0,0,1,2-2.22A8.63,8.63,0,0,1,562,199.41Z" style="fill:#fafafa"></path><path d="M570.65,211.67a12.34,12.34,0,0,1-2.22-2.74,11.87,11.87,0,0,1-1.79-3,12.34,12.34,0,0,1,2.22,2.74A11.87,11.87,0,0,1,570.65,211.67Z" style="fill:#fafafa"></path><path d="M577.79,192.33c.07.13-.93.79-2,1.76s-1.88,1.87-2,1.78a4.85,4.85,0,0,1,1.66-2.17A4.71,4.71,0,0,1,577.79,192.33Z" style="fill:#fafafa"></path><path d="M576.22,217.45a17.5,17.5,0,0,1,0-6,17.5,17.5,0,0,1,0,6Z" style="fill:#fafafa"></path><path d="M571.11,241.69a7.34,7.34,0,0,1,.3-2.73,7.43,7.43,0,0,1,.81-2.61,7.28,7.28,0,0,1-.3,2.72A7.63,7.63,0,0,1,571.11,241.69Z" style="fill:#fafafa"></path><path d="M554,250.28a20.5,20.5,0,0,1-6.44.35,10,10,0,0,1,3.21-.44A10.48,10.48,0,0,1,554,250.28Z" style="fill:#fafafa"></path><path d="M544.31,218.69a17.84,17.84,0,0,1-6.26,5.23,28.22,28.22,0,0,1,3.09-2.65A27.33,27.33,0,0,1,544.31,218.69Z" style="fill:#fafafa"></path><path d="M564.89,244.41a15.5,15.5,0,0,1-2-5.28,7.91,7.91,0,0,1,1.27,2.55A8.12,8.12,0,0,1,564.89,244.41Z" style="fill:#fafafa"></path><path d="M561.9,219.41A11.35,11.35,0,0,1,562,216a11,11,0,0,1,.61-3.35,22.61,22.61,0,0,1-.69,6.76Z" style="fill:#fafafa"></path><path d="M574.59,247.89a10.51,10.51,0,0,1-2.19,2.46,10.81,10.81,0,0,1-2.56,2.1A10.64,10.64,0,0,1,572,250,10.38,10.38,0,0,1,574.59,247.89Z" style="fill:#fafafa"></path><path d="M547.91,197.88a13.34,13.34,0,0,1-2.92-2.25,12.69,12.69,0,0,1-2.58-2.64,13.34,13.34,0,0,1,2.92,2.25A13,13,0,0,1,547.91,197.88Z" style="fill:#fafafa"></path><path d="M568.37,186.18a8.92,8.92,0,0,1-1.42,2.7,9.1,9.1,0,0,1-1.86,2.41,17.62,17.62,0,0,1,3.28-5.11Z" style="fill:#fafafa"></path><path d="M583.61,195.81a12.74,12.74,0,0,1-1.64-3.26,12.92,12.92,0,0,1-1.17-3.46,13.41,13.41,0,0,1,1.65,3.26A12.9,12.9,0,0,1,583.61,195.81Z" style="fill:#fafafa"></path><path d="M585.73,209.36a13.33,13.33,0,0,1,.74-5.11,12.77,12.77,0,0,1-.74,5.11Z" style="fill:#fafafa"></path><path d="M523.88,211.78a5.62,5.62,0,0,1-2.63,2,5.75,5.75,0,0,1-3.25.7c0-.16,1.42-.42,3-1.18S523.78,211.67,523.88,211.78Z" style="fill:#fafafa"></path><path d="M521.63,203.16a15.79,15.79,0,0,1-1.35-3.85,16,16,0,0,1-.85-4,16.27,16.27,0,0,1,1.35,3.86A15.89,15.89,0,0,1,521.63,203.16Z" style="fill:#fafafa"></path><path d="M532.29,195.54a7.52,7.52,0,0,1-3.17-1.38,7.24,7.24,0,0,1-2.56-2.31,27.87,27.87,0,0,1,2.85,1.87A26.65,26.65,0,0,1,532.29,195.54Z" style="fill:#fafafa"></path><path d="M538.62,185.64a8.23,8.23,0,0,1-2-2.13,7.92,7.92,0,0,1-1.52-2.43,15.91,15.91,0,0,1,3.47,4.56Z" style="fill:#fafafa"></path><path d="M566.05,121.05c2.29-2.41,6.34-2.59,9.18-.87a11.22,11.22,0,0,1,4.92,8.27c.26,2.07.11,4.27,1.13,6.08s3.32,3,4.83,4.62a8.16,8.16,0,0,1,1.06,9.3c-.9,1.58-2.4,3.15-2,4.91s2.73,2.55,4.08,3.93c2,2.05,1.67,5.36,1.09,8.16-.27,1.26-.67,2.66-1.8,3.27a5,5,0,0,1-3,.15c-6.41-.89-12.9.46-19.36.81s-13.51-.53-18.22-5" style="fill:#263238"></path><path d="M565.18,180.22l0-11.58s8.3-1.37,10-12.2c.85-5.39.58-14.22.13-21.43-.41-6.5-4.67-14.66-13.32-14.63,0,0-18.88-1.38-19.78,13.06l-.4,46.73A11.71,11.71,0,0,0,553.59,192h0A11.7,11.7,0,0,0,565.18,180.22Z" style="fill:#aa6550"></path><path d="M573.38,143a1.39,1.39,0,0,1-1.33,1.41,1.34,1.34,0,0,1-1.44-1.26,1.4,1.4,0,0,1,1.34-1.4A1.32,1.32,0,0,1,573.38,143Z" style="fill:#263238"></path><path d="M573.68,141c-.17.19-1.22-.59-2.72-.59s-2.59.75-2.75.57.1-.41.57-.76a3.81,3.81,0,0,1,2.21-.67,3.62,3.62,0,0,1,2.16.69C573.61,140.55,573.76,140.87,573.68,141Z" style="fill:#263238"></path><path d="M558.93,143a1.39,1.39,0,0,1-1.33,1.41,1.34,1.34,0,0,1-1.44-1.26,1.4,1.4,0,0,1,1.34-1.4A1.32,1.32,0,0,1,558.93,143Z" style="fill:#263238"></path><path d="M559,141c-.17.19-1.23-.59-2.72-.59s-2.59.75-2.75.57.09-.41.57-.76a3.8,3.8,0,0,1,2.2-.67,3.65,3.65,0,0,1,2.17.69C558.92,140.55,559.07,140.87,559,141Z" style="fill:#263238"></path><path d="M564.1,152.19a9.35,9.35,0,0,1,2.43-.44c.38,0,.74-.11.8-.37a2,2,0,0,0-.25-1.13L566,147.34c-1.57-4.14-2.7-7.54-2.53-7.6s1.57,3.24,3.14,7.38c.37,1,.73,2,1.08,2.92a2.21,2.21,0,0,1,.19,1.5,1,1,0,0,1-.62.56,2.8,2.8,0,0,1-.65.09A10,10,0,0,1,564.1,152.19Z" style="fill:#263238"></path><path d="M565.13,168.64a27.54,27.54,0,0,1-14.5-3.87s3.52,7.44,14.35,6.43Z" style="fill:#874232"></path><path d="M563.46,157.32a1.32,1.32,0,0,0-1.46-2,1.16,1.16,0,0,0-.79-1.19,1.65,1.65,0,0,0-1.47.26,2.29,2.29,0,0,0-.76,2.67,2.5,2.5,0,0,0,2.39,1.49,2.79,2.79,0,0,0,2.34-1.63" style="fill:#874232"></path><path d="M559.7,153.22c.24,0,.25,1.61,1.64,2.76s3.11,1,3.12,1.2-.38.32-1.11.34a4.08,4.08,0,0,1-2.61-.91,3.54,3.54,0,0,1-1.27-2.32C559.41,153.62,559.59,153.21,559.7,153.22Z" style="fill:#263238"></path><path d="M560.29,138.34c-.14.4-1.64.21-3.39.42s-3.17.69-3.4.33c-.11-.18.14-.56.71-1a6,6,0,0,1,5.18-.57C560,137.83,560.36,138.15,560.29,138.34Z" style="fill:#263238"></path><path d="M573.47,138.07c-.26.34-1.29,0-2.53,0s-2.28.23-2.53-.13c-.1-.17.06-.51.52-.83a3.55,3.55,0,0,1,2.06-.56,3.51,3.51,0,0,1,2,.69C573.44,137.56,573.59,137.9,573.47,138.07Z" style="fill:#263238"></path><path d="M549.92,153.22c.08,1.43.09,2.68.06,3.77a9.69,9.69,0,0,1-5,8.28,17.5,17.5,0,0,1-7.48,2.36A22.56,22.56,0,0,1,529.1,166q-7-2.4-13.66-5.44a3.22,3.22,0,0,1-1.69-1.3,3.25,3.25,0,0,1,.11-2.33c.63-2.06,1.25-4.12,1.88-6.19a14.41,14.41,0,0,1,1.38-3.43A4.79,4.79,0,0,1,520,145a26.88,26.88,0,0,0,3-.41,4,4,0,0,0,2.18-2.31,18.92,18.92,0,0,0,.82-3.17c.51-2.29,1.59-4.7,3.73-5.67,1.21-.56,2.61-.57,3.85-1.07a8.3,8.3,0,0,0,3.84-4,51.39,51.39,0,0,1,2.59-5,7.26,7.26,0,0,1,3.18-2.71,11.56,11.56,0,0,1,2.22-1.61c3.58-2,7.91-1.85,12-1.67s13-3.59,13.6,6.9a3.32,3.32,0,0,0-5.3.46,6,6,0,0,0-.88,4.5c.3,1.76.52,3.71-.43,5.22a5.2,5.2,0,0,1-4.81,2.08,15.25,15.25,0,0,1-5.21-1.69s-1.33,6.87-5.89,8.53Z" style="fill:#263238"></path><path d="M519.78,162.21a2.35,2.35,0,0,1-.68-.4,2.21,2.21,0,0,1-.53-2.06,3.31,3.31,0,0,1,2.51-2.21c1.32-.46,3-.4,4.72-1.25a4.75,4.75,0,0,0,2-2.12,9.72,9.72,0,0,0,.83-3c.28-2.11.09-4.46,1.21-6.47a5,5,0,0,1,2.61-2.15,14.28,14.28,0,0,1,3.64-.78,20.6,20.6,0,0,0,3.94-.68,6.19,6.19,0,0,0,3.48-2.36,7.71,7.71,0,0,0,.9-4.09,8.55,8.55,0,0,1,.6-3.71,3.38,3.38,0,0,1,2.88-1.71,11.59,11.59,0,0,1,3.52.41,13.6,13.6,0,0,0,3.51.51,4.38,4.38,0,0,0,3.17-1.22,5.12,5.12,0,0,0,1.22-2.92c.13-1,.15-1.94.26-2.82a6,6,0,0,1,.71-2.35,4.21,4.21,0,0,1,1.57-1.49,4.5,4.5,0,0,1,3.44-.35,5.53,5.53,0,0,1,2,1.09c.39.34.57.56.59.54s0-.07-.1-.18a4,4,0,0,0-.4-.46,5.22,5.22,0,0,0-2-1.22,4.62,4.62,0,0,0-3.67.27,4.55,4.55,0,0,0-1.76,1.58,6.4,6.4,0,0,0-.81,2.51c-.13.91-.16,1.85-.3,2.81a4.61,4.61,0,0,1-1.11,2.62,3.84,3.84,0,0,1-2.8,1,13.46,13.46,0,0,1-3.36-.52,11.85,11.85,0,0,0-3.71-.45,4,4,0,0,0-3.38,2c-1.27,2.56-.06,5.52-1.49,7.75a5.53,5.53,0,0,1-3.13,2.1,19.7,19.7,0,0,1-3.82.66,15.2,15.2,0,0,0-3.79.84,5.55,5.55,0,0,0-2.9,2.42c-1.21,2.26-1,4.67-1.23,6.71s-1,4-2.53,4.81-3.24.79-4.61,1.3a3.59,3.59,0,0,0-2.65,2.51,2.34,2.34,0,0,0,.7,2.2A1.08,1.08,0,0,0,519.78,162.21Z" style="fill:#455a64"></path><path d="M584.38,169.38a2.26,2.26,0,0,0,.54-.31,5.64,5.64,0,0,0,1.23-1.33,6.48,6.48,0,0,0,1-2.68,6.36,6.36,0,0,0-.57-3.76c-.64-1.34-2-2.26-3.12-3.34a4.82,4.82,0,0,1-1.37-1.92,3.49,3.49,0,0,1,.11-2.42c.64-1.64,2-3,3-4.82a7.39,7.39,0,0,0,.44-6.23,5.46,5.46,0,0,0-2.18-2.42,9,9,0,0,1-2.3-1.81,9.64,9.64,0,0,1-1.83-5.17c-.2-1.79-.15-3.55-.36-5.18a11.24,11.24,0,0,0-1.33-4.4,5.74,5.74,0,0,0-2.86-2.49,3.76,3.76,0,0,0-2.87,0,3.15,3.15,0,0,0-1.38,1.17,1.47,1.47,0,0,0-.24.59,3.41,3.41,0,0,1,1.72-1.53,3.57,3.57,0,0,1,2.64.08,5.39,5.39,0,0,1,2.6,2.39,10.81,10.81,0,0,1,1.19,4.23c.19,1.59.12,3.33.31,5.18a10.15,10.15,0,0,0,1.92,5.51,9.84,9.84,0,0,0,2.44,1.94,4.91,4.91,0,0,1,1.94,2.15,6.83,6.83,0,0,1-.4,5.68c-.91,1.69-2.34,3.09-3,4.9a4,4,0,0,0-.09,2.81,5.35,5.35,0,0,0,1.54,2.13c1.22,1.1,2.48,2,3.08,3.16a6.08,6.08,0,0,1,.62,3.5,6.47,6.47,0,0,1-.86,2.6A7.38,7.38,0,0,1,584.38,169.38Z" style="fill:#455a64"></path><path d="M570.52,226.36l-6.38-6.18A7.47,7.47,0,0,0,553.71,222l-7.11,10.1-27.48,4.74s5.46-12.42,5.55-12.91l.57.37-.57-.37s0,0,0,0l-17-11.07-7.47,18.29s-6.95,18.67,7.37,24.11,47.25-12.44,47.25-12.44l0-.06,4.16-3.07,2-1.74a7.29,7.29,0,0,0,2.51-4.78l.74-7.07s3.78,2,5.61,2.91c1,.46,1.3,0,1.42-.63A2.17,2.17,0,0,0,570.52,226.36Z" style="fill:#aa6550"></path><path d="M564.19,226.58s-.08-.35-.4-.81a3.66,3.66,0,0,0-1.72-1.38,2.24,2.24,0,0,0-2.18.41c-.44.43-.43.85-.38.84s.15-.32.57-.61a2.15,2.15,0,0,1,1.86-.26,4.28,4.28,0,0,1,1.62,1.18C563.93,226.35,564.14,226.61,564.19,226.58Z" style="fill:#874232"></path><path d="M559.35,229.24s.25-.15.63-.35a3,3,0,0,1,3.1,0c.37.21.58.4.62.36s-.09-.3-.45-.6a2.88,2.88,0,0,0-1.72-.6,2.84,2.84,0,0,0-1.72.59C559.45,228.94,559.31,229.21,559.35,229.24Z" style="fill:#874232"></path></g></svg>