<svg xmlns="http://www.w3.org/2000/svg" xmlns:xlink="http://www.w3.org/1999/xlink" width="106" height="106" viewBox="0 0 106 106">
  <defs>
    <filter id="Path_3324" x="0" y="0" width="106" height="106" filterUnits="userSpaceOnUse">
      <feOffset dy="5" input="SourceAlpha"/>
      <feGaussianBlur stdDeviation="9" result="blur"/>
      <feFlood flood-color="#ab0808" flood-opacity="0.902"/>
      <feComposite operator="in" in2="blur"/>
      <feComposite in="SourceGraphic"/>
    </filter>
  </defs>
  <g id="Group_2053" data-name="Group 2053" transform="translate(-327 -2197)">
    <g transform="matrix(1, 0, 0, 1, 327, 2197)" filter="url(#Path_3324)">
      <g id="Path_3324-2" data-name="Path 3324" transform="translate(29 24)" fill="#ab0808">
        <path d="M 35 49 L 13 49 C 9.260470390319824 49 5.744760036468506 47.54375076293945 3.100509881973267 44.89949035644531 C 0.456250011920929 42.25524139404297 -1 38.73952865600586 -1 35 L -1 13 C -1 9.260470390319824 0.456250011920929 5.744760036468506 3.100509881973267 3.100509881973267 C 5.744760036468506 0.456250011920929 9.260470390319824 -1 13 -1 L 35 -1 C 38.73952865600586 -1 42.25524139404297 0.456250011920929 44.89949035644531 3.100509881973267 C 47.54375076293945 5.744760036468506 49 9.260470390319824 49 13 L 49 35 C 49 38.73952865600586 47.54375076293945 42.25524139404297 44.89949035644531 44.89949035644531 C 42.25524139404297 47.54375076293945 38.73952865600586 49 35 49 Z" stroke="none"/>
        <path d="M 13 0 C 5.820301055908203 0 0 5.820301055908203 0 13 L 0 35 C 0 42.1796989440918 5.820301055908203 48 13 48 L 35 48 C 42.1796989440918 48 48 42.1796989440918 48 35 L 48 13 C 48 5.820301055908203 42.1796989440918 0 35 0 L 13 0 M 13 -2 L 35 -2 C 39.00664138793945 -2 42.77346801757813 -0.4397315979003906 45.60660171508789 2.393398284912109 C 48.43973159790039 5.226528167724609 50 8.993358612060547 50 13 L 50 35 C 50 39.00664138793945 48.43973159790039 42.77346801757813 45.60660171508789 45.60660171508789 C 42.77346801757813 48.43973159790039 39.00664138793945 50 35 50 L 13 50 C 8.993358612060547 50 5.226528167724609 48.43973159790039 2.393398284912109 45.60660171508789 C -0.4397315979003906 42.77346801757813 -2 39.00664138793945 -2 35 L -2 13 C -2 8.993358612060547 -0.4397315979003906 5.226528167724609 2.393398284912109 2.393398284912109 C 5.226528167724609 -0.4397315979003906 8.993358612060547 -2 13 -2 Z" stroke="none" fill="red"/>
      </g>
    </g>
    <g id="Polygon_4" data-name="Polygon 4" transform="translate(391 2278) rotate(180)" fill="#ab0808">
      <path d="M 17.68778991699219 13.99999618530273 L 4.312209129333496 13.99999618530273 C 3.130649089813232 13.99999618530273 2.08781909942627 13.33412647247314 1.590679049491882 12.26223659515381 C 1.093538999557495 11.19035625457764 1.258828997612 9.964157104492188 2.022048950195313 9.062176704406738 L 8.7098388671875 1.158426642417908 C 9.28101921081543 0.4833966493606567 10.11574935913086 0.09625664353370667 10.99999904632568 0.09625664353370667 C 11.88424873352051 0.09625664353370667 12.71897888183594 0.4833966493606567 13.29014873504639 1.158426642417908 L 19.97794914245605 9.062176704406738 C 20.74116897583008 9.964157104492188 20.90645980834961 11.19035625457764 20.4093189239502 12.26223659515381 C 19.91217994689941 13.33412647247314 18.86934852600098 13.99999618530273 17.68778991699219 13.99999618530273 Z" stroke="none"/>
      <path d="M 10.99999904632568 1.096254348754883 C 10.43633937835693 1.096254348754883 9.872678756713867 1.332291603088379 9.47322940826416 1.804367065429688 L 2.785438537597656 9.70811653137207 C 1.685579299926758 11.00794696807861 2.609489440917969 12.99999618530273 4.31220817565918 12.99999618530273 L 17.68778991699219 12.99999618530273 C 19.3905086517334 12.99999618530273 20.31441879272461 11.00794696807861 19.21455955505371 9.70811653137207 L 12.52676868438721 1.804367065429688 C 12.1273193359375 1.332291603088379 11.56365871429443 1.096254348754883 10.99999904632568 1.096254348754883 M 10.99999904632568 -0.9037437438964844 C 12.17900943756104 -0.9037437438964844 13.29197883605957 -0.3875436782836914 14.05354881286621 0.512486457824707 L 20.74132919311523 8.416236877441406 C 21.75895881652832 9.618876457214355 21.97934913635254 11.25380706787109 21.31649971008301 12.68298625946045 C 20.65364837646484 14.11216640472412 19.26320838928223 14.99999618530273 17.68778991699219 14.99999618530273 L 4.31220817565918 14.99999618530273 C 2.736789703369141 14.99999618530273 1.346349716186523 14.11216640472412 0.6834983825683594 12.68298625946045 C 0.02064895629882813 11.25380706787109 0.2410392761230469 9.618876457214355 1.258668899536133 8.416227340698242 L 7.94645881652832 0.512486457824707 C 8.708019256591797 -0.3875436782836914 9.820988655090332 -0.9037437438964844 10.99999904632568 -0.9037437438964844 Z" stroke="none" fill="red"/>
    </g>
    <rect id="Rectangle_708" data-name="Rectangle 708" width="22" height="7" transform="translate(369 2262)" fill="#ab0808"/>
    <g id="gateway-arch" transform="translate(365.346 2228.521)">
      <path id="Path_345" data-name="Path 345" d="M390.9,385.6h-2.155a2.545,2.545,0,0,1,.147.853c0,3.835-3.43,5.819-4.386,6.332H390.9a.853.853,0,0,0,.853-.853v-5.48A.853.853,0,0,0,390.9,385.6Z" transform="translate(-362.65 -363.681)" fill="#fff"/>
      <path id="Path_346" data-name="Path 346" d="M2.861,386.453a2.546,2.546,0,0,1,.147-.853H.853a.853.853,0,0,0-.853.853v5.48a.853.853,0,0,0,.853.853h6.4C6.282,392.266,2.861,390.286,2.861,386.453Z" transform="translate(0 -363.681)" fill="#fff"/>
      <path id="Path_347" data-name="Path 347" d="M48.637,13.8c1.614-7.62,3.514-8.442,4.256-8.442s2.642.823,4.256,8.442c.5,2.337.824,4.693,1.025,6.413h6.96a72.154,72.154,0,0,0-2.419-8.686C60.006,3.878,56.7,0,52.893,0S45.78,3.878,43.071,11.527a72.164,72.164,0,0,0-2.419,8.686h6.96C47.813,18.493,48.142,16.137,48.637,13.8Z" transform="translate(-38.341)" fill="#fff"/>
      <path id="Path_348" data-name="Path 348" d="M100.3,386.453a.853.853,0,0,0-.853-.853H81.186a.853.853,0,0,0-.853.853c0,3.671,4.642,6.332,9.985,6.332C95.692,392.785,100.3,390.107,100.3,386.453Z" transform="translate(-75.767 -363.681)" fill="#00ffbd"/>
    </g>
  </g>
</svg>
