<svg xmlns="http://www.w3.org/2000/svg" version="1.1" xmlns:xlink="http://www.w3.org/1999/xlink" xmlns:svgjs="http://svgjs.com/svgjs" width="1440" height="110" preserveAspectRatio="none" viewBox="0 0 1440 110"><g mask="url(&quot;#SvgjsMask8614&quot;)" fill="none"><rect width="1440" height="110" x="0" y="0" fill="url(#SvgjsLinearGradient8615)"></rect><path d="M1048 82L974 8" stroke-width="8" stroke="url(#SvgjsLinearGradient8616)" stroke-linecap="round" class="BottomRight"></path><path d="M1031 100L981 50" stroke-width="6" stroke="url(#SvgjsLinearGradient8617)" stroke-linecap="round" class="TopLeft"></path><path d="M780 5L747 -28" stroke-width="6" stroke="url(#SvgjsLinearGradient8617)" stroke-linecap="round" class="TopLeft"></path><path d="M1047 15L977 -55" stroke-width="6" stroke="url(#SvgjsLinearGradient8616)" stroke-linecap="round" class="BottomRight"></path><path d="M1303 75L1266 38" stroke-width="8" stroke="url(#SvgjsLinearGradient8618)" stroke-linecap="round" class="BottomRight"></path><path d="M614 110L681 177" stroke-width="8" stroke="url(#SvgjsLinearGradient8619)" stroke-linecap="round" class="TopLeft"></path><path d="M1185 79L1247 141" stroke-width="6" stroke="url(#SvgjsLinearGradient8619)" stroke-linecap="round" class="TopLeft"></path><path d="M1130 86L1191 147" stroke-width="10" stroke="url(#SvgjsLinearGradient8616)" stroke-linecap="round" class="BottomRight"></path><path d="M256 24L189 -43" stroke-width="8" stroke="url(#SvgjsLinearGradient8617)" stroke-linecap="round" class="TopLeft"></path><path d="M1373 53L1310 -10" stroke-width="8" stroke="url(#SvgjsLinearGradient8618)" stroke-linecap="round" class="BottomRight"></path><path d="M1291 34L1218 -39" stroke-width="10" stroke="url(#SvgjsLinearGradient8619)" stroke-linecap="round" class="TopLeft"></path><path d="M545 95L478 28" stroke-width="6" stroke="url(#SvgjsLinearGradient8619)" stroke-linecap="round" class="TopLeft"></path><path d="M1129 25L1060 -44" stroke-width="10" stroke="url(#SvgjsLinearGradient8618)" stroke-linecap="round" class="BottomRight"></path><path d="M999 60L1063 124" stroke-width="8" stroke="url(#SvgjsLinearGradient8619)" stroke-linecap="round" class="TopLeft"></path><path d="M759 71L713 25" stroke-width="8" stroke="url(#SvgjsLinearGradient8619)" stroke-linecap="round" class="TopLeft"></path><path d="M676 85L645 54" stroke-width="8" stroke="url(#SvgjsLinearGradient8617)" stroke-linecap="round" class="TopLeft"></path><path d="M361 65L428 132" stroke-width="10" stroke="url(#SvgjsLinearGradient8618)" stroke-linecap="round" class="BottomRight"></path><path d="M1193 10L1242 59" stroke-width="6" stroke="url(#SvgjsLinearGradient8617)" stroke-linecap="round" class="TopLeft"></path><path d="M717 80L639 2" stroke-width="6" stroke="url(#SvgjsLinearGradient8616)" stroke-linecap="round" class="BottomRight"></path><path d="M1201 110L1262 171" stroke-width="10" stroke="url(#SvgjsLinearGradient8617)" stroke-linecap="round" class="TopLeft"></path><path d="M1315 31L1247 -37" stroke-width="10" stroke="url(#SvgjsLinearGradient8616)" stroke-linecap="round" class="BottomRight"></path><path d="M342 22L373 53" stroke-width="10" stroke="url(#SvgjsLinearGradient8619)" stroke-linecap="round" class="TopLeft"></path><path d="M766 30L718 -18" stroke-width="8" stroke="url(#SvgjsLinearGradient8617)" stroke-linecap="round" class="TopLeft"></path><path d="M507 33L478 4" stroke-width="6" stroke="url(#SvgjsLinearGradient8617)" stroke-linecap="round" class="TopLeft"></path><path d="M753 31L818 96" stroke-width="10" stroke="url(#SvgjsLinearGradient8616)" stroke-linecap="round" class="BottomRight"></path><path d="M1046 103L979 36" stroke-width="8" stroke="url(#SvgjsLinearGradient8618)" stroke-linecap="round" class="BottomRight"></path><path d="M1222 49L1278 105" stroke-width="10" stroke="url(#SvgjsLinearGradient8616)" stroke-linecap="round" class="BottomRight"></path><path d="M1270 59L1224 13" stroke-width="10" stroke="url(#SvgjsLinearGradient8618)" stroke-linecap="round" class="BottomRight"></path><path d="M1122 11L1042 -69" stroke-width="10" stroke="url(#SvgjsLinearGradient8618)" stroke-linecap="round" class="BottomRight"></path><path d="M335 31L371 67" stroke-width="6" stroke="url(#SvgjsLinearGradient8619)" stroke-linecap="round" class="TopLeft"></path><path d="M771 95L699 23" stroke-width="6" stroke="url(#SvgjsLinearGradient8618)" stroke-linecap="round" class="BottomRight"></path><path d="M1321 42L1280 1" stroke-width="8" stroke="url(#SvgjsLinearGradient8618)" stroke-linecap="round" class="BottomRight"></path><path d="M729 39L676 -14" stroke-width="6" stroke="url(#SvgjsLinearGradient8618)" stroke-linecap="round" class="BottomRight"></path><path d="M151 18L193 60" stroke-width="10" stroke="url(#SvgjsLinearGradient8618)" stroke-linecap="round" class="BottomRight"></path><path d="M1094 80L1034 20" stroke-width="8" stroke="url(#SvgjsLinearGradient8618)" stroke-linecap="round" class="BottomRight"></path><path d="M424 88L463 127" stroke-width="10" stroke="url(#SvgjsLinearGradient8618)" stroke-linecap="round" class="BottomRight"></path><path d="M807 4L851 48" stroke-width="6" stroke="url(#SvgjsLinearGradient8618)" stroke-linecap="round" class="BottomRight"></path></g><defs><mask id="SvgjsMask8614"><rect width="1440" height="110" fill="#ffffff"></rect></mask><linearGradient x1="100%" y1="50%" x2="0%" y2="50%" gradientUnits="userSpaceOnUse" id="SvgjsLinearGradient8615"><stop stop-color="rgba(220, 231, 243, 0.61)" offset="0.94"></stop><stop stop-color="rgba(233, 243, 255, 1)" offset="1"></stop></linearGradient><linearGradient x1="0%" y1="0%" x2="100%" y2="100%" id="SvgjsLinearGradient8616"><stop stop-color="rgba(0, 33, 69, 0)" offset="0"></stop><stop stop-color="rgba(0, 33, 69, 1)" offset="1"></stop></linearGradient><linearGradient x1="100%" y1="100%" x2="0%" y2="0%" id="SvgjsLinearGradient8617"><stop stop-color="rgba(255, 0, 0, 0)" offset="0"></stop><stop stop-color="rgba(255, 0, 0, 1)" offset="1"></stop></linearGradient><linearGradient x1="0%" y1="0%" x2="100%" y2="100%" id="SvgjsLinearGradient8618"><stop stop-color="rgba(255, 0, 0, 0)" offset="0"></stop><stop stop-color="rgba(255, 0, 0, 1)" offset="1"></stop></linearGradient><linearGradient x1="100%" y1="100%" x2="0%" y2="0%" id="SvgjsLinearGradient8619"><stop stop-color="rgba(0, 33, 69, 0)" offset="0"></stop><stop stop-color="rgba(0, 33, 69, 1)" offset="1"></stop></linearGradient></defs></svg>