<svg xmlns="http://www.w3.org/2000/svg" version="1.1" xmlns:xlink="http://www.w3.org/1999/xlink" xmlns:svgjs="http://svgjs.com/svgjs" width="1440" height="120" preserveAspectRatio="none" viewBox="0 0 1440 120"><g mask="url(&quot;#SvgjsMask1041&quot;)" fill="none"><rect width="1440" height="120" x="0" y="0" fill="rgba(241, 248, 255, 1)"></rect><g transform="translate(0, 0)" stroke-linecap="round"><path d="M250 41.86 L250 78.14" stroke-width="15" stroke="rgba(255, 0, 42, 1)"></path><path d="M270 51.35 L270 68.65" stroke-width="15" stroke="rgba(0, 33, 69, 1)"></path><path d="M290 33.83 L290 86.17" stroke-width="15" stroke="rgba(0, 33, 69, 1)"></path><path d="M310 48.35 L310 71.65" stroke-width="15" stroke="rgba(255, 0, 42, 1)"></path><path d="M330 33.21 L330 86.79" stroke-width="15" stroke="rgba(0, 33, 69, 1)"></path><path d="M350 41.09 L350 78.91" stroke-width="15" stroke="rgba(0, 33, 69, 1)"></path><path d="M370 47.53 L370 72.47" stroke-width="15" stroke="rgba(255, 0, 42, 1)"></path><path d="M390 48.28 L390 71.72" stroke-width="15" stroke="rgba(255, 0, 42, 1)"></path><path d="M410 34.25 L410 85.75" stroke-width="15" stroke="rgba(0, 33, 69, 1)"></path><path d="M430 37.2 L430 82.81" stroke-width="15" stroke="rgba(0, 33, 69, 1)"></path><path d="M450 40.18 L450 79.82" stroke-width="15" stroke="rgba(255, 0, 42, 1)"></path><path d="M470 55.49 L470 64.5" stroke-width="15" stroke="rgba(255, 0, 42, 1)"></path><path d="M490 44.88 L490 75.13" stroke-width="15" stroke="rgba(0, 33, 69, 1)"></path><path d="M510 39.39 L510 80.61" stroke-width="15" stroke="rgba(0, 33, 69, 1)"></path><path d="M530 37.39 L530 82.61" stroke-width="15" stroke="rgba(255, 0, 42, 1)"></path><path d="M550 32.17 L550 87.83" stroke-width="15" stroke="rgba(0, 33, 69, 1)"></path><path d="M570 30.27 L570 89.72" stroke-width="15" stroke="rgba(0, 33, 69, 1)"></path><path d="M590 30.31 L590 89.69" stroke-width="15" stroke="rgba(255, 0, 42, 1)"></path><path d="M610 34.97 L610 85.03" stroke-width="15" stroke="rgba(255, 0, 42, 1)"></path><path d="M630 54.36 L630 65.64" stroke-width="15" stroke="rgba(255, 0, 42, 1)"></path><path d="M650 46.13 L650 73.88" stroke-width="15" stroke="rgba(255, 0, 42, 1)"></path><path d="M670 48.59 L670 71.41" stroke-width="15" stroke="rgba(255, 0, 42, 1)"></path><path d="M690 30.36 L690 89.64" stroke-width="15" stroke="rgba(0, 33, 69, 1)"></path><path d="M710 52.03 L710 67.97" stroke-width="15" stroke="rgba(255, 0, 42, 1)"></path><path d="M730 41.38 L730 78.63" stroke-width="15" stroke="rgba(255, 0, 42, 1)"></path><path d="M750 37.65 L750 82.35" stroke-width="15" stroke="rgba(255, 0, 42, 1)"></path><path d="M770 43.13 L770 76.88" stroke-width="15" stroke="rgba(255, 0, 42, 1)"></path><path d="M790 52.39 L790 67.61" stroke-width="15" stroke="rgba(0, 33, 69, 1)"></path><path d="M810 48.08 L810 71.92" stroke-width="15" stroke="rgba(0, 33, 69, 1)"></path><path d="M830 55.49 L830 64.51" stroke-width="15" stroke="rgba(0, 33, 69, 1)"></path><path d="M850 54.47 L850 65.53" stroke-width="15" stroke="rgba(255, 0, 42, 1)"></path><path d="M870 45.52 L870 74.48" stroke-width="15" stroke="rgba(0, 33, 69, 1)"></path><path d="M890 34.48 L890 85.53" stroke-width="15" stroke="rgba(0, 33, 69, 1)"></path><path d="M910 39.67 L910 80.33" stroke-width="15" stroke="rgba(255, 0, 42, 1)"></path><path d="M930 49.46 L930 70.54" stroke-width="15" stroke="rgba(255, 0, 42, 1)"></path><path d="M950 37.02 L950 82.98" stroke-width="15" stroke="rgba(255, 0, 42, 1)"></path><path d="M970 30.16 L970 89.84" stroke-width="15" stroke="rgba(255, 0, 42, 1)"></path><path d="M990 39.57 L990 80.43" stroke-width="15" stroke="rgba(255, 0, 42, 1)"></path><path d="M1010 34.63 L1010 85.38" stroke-width="15" stroke="rgba(0, 33, 69, 1)"></path><path d="M1030 34.78 L1030 85.22" stroke-width="15" stroke="rgba(255, 0, 42, 1)"></path><path d="M1050 29.96 L1050 90.04" stroke-width="15" stroke="rgba(255, 0, 42, 1)"></path><path d="M1070 44.31 L1070 75.69" stroke-width="15" stroke="rgba(255, 0, 42, 1)"></path><path d="M1090 33.86 L1090 86.14" stroke-width="15" stroke="rgba(0, 33, 69, 1)"></path><path d="M1110 30.66 L1110 89.34" stroke-width="15" stroke="rgba(0, 33, 69, 1)"></path><path d="M1130 45.8 L1130 74.19" stroke-width="15" stroke="rgba(0, 33, 69, 1)"></path><path d="M1150 35.95 L1150 84.05" stroke-width="15" stroke="rgba(255, 0, 42, 1)"></path><path d="M1170 53.26 L1170 66.74" stroke-width="15" stroke="rgba(0, 33, 69, 1)"></path><path d="M1190 54.76 L1190 65.25" stroke-width="15" stroke="rgba(255, 0, 42, 1)"></path></g></g><defs><mask id="SvgjsMask1041"><rect width="1440" height="120" fill="#ffffff"></rect></mask></defs></svg>