<svg xmlns="http://www.w3.org/2000/svg" version="1.1" xmlns:xlink="http://www.w3.org/1999/xlink" xmlns:svgjs="http://svgjs.com/svgjs" width="1440" height="120" preserveAspectRatio="none" viewBox="0 0 1440 120"><g mask="url(&quot;#SvgjsMask1211&quot;)" fill="none"><rect width="1440" height="120" x="0" y="0" fill="rgba(224, 238, 253, 0.53)"></rect><path d="M0,382.073C72.835,375.599,86.04,267.905,141.684,220.464C186.635,182.14,254.708,179.224,291.823,133.271C334.159,80.854,374.913,14.069,361.757,-52.013C348.62,-117.999,281.673,-157.896,226.261,-196.056C180.833,-227.34,124.596,-229.59,73.55,-250.488C14.734,-274.568,-32.86,-331.009,-96.349,-328.135C-163.662,-325.088,-224.845,-283.91,-271.075,-234.888C-318.408,-184.697,-353.408,-120.255,-357.345,-51.378C-361.149,15.183,-329.038,77.89,-292.126,133.409C-259.119,183.055,-204.247,208.533,-158.85,247.176C-104.859,293.135,-70.625,388.35,0,382.073" fill="rgba(202, 226, 252, 0.53)"></path><path d="M1440 444.863C1504.427 443.377 1569.772 440.884 1626.103 409.581 1684.552 377.102 1735.6109999999999 328.45 1760.893 266.547 1785.7269999999999 205.74099999999999 1776.811 137.797 1763.356 73.50800000000001 1750.558 12.358999999999995 1725.628-44.849999999999994 1685.671-92.875 1645.137-141.594 1594.364-181.002 1534.439-201.63 1472.731-222.872 1405.22-230.077 1342.843-210.88600000000002 1280.863-191.817 1236.388-142.05399999999997 1190.825-95.912 1142.24-46.709 1095.812 2.972999999999999 1068.81 66.631 1035.372 145.462 978.446 236.737 1017.374 313.007 1056.628 389.916 1165.8690000000001 392.579 1248.297 418.296 1311.154 437.907 1374.173 446.381 1440 444.863" fill="rgba(246, 250, 254, 0.53)"></path></g><defs><mask id="SvgjsMask1211"><rect width="1440" height="120" fill="#ffffff"></rect></mask></defs></svg>