<svg xmlns="http://www.w3.org/2000/svg" version="1.1" xmlns:xlink="http://www.w3.org/1999/xlink" xmlns:svgjs="http://svgjs.com/svgjs" width="1440" height="110" preserveAspectRatio="none" viewBox="0 0 1440 110"><g mask="url(&quot;#SvgjsMask1004&quot;)" fill="none"><rect width="1440" height="110" x="0" y="0" fill="rgba(239, 245, 251, 1)"></rect><path d="M673.828,105.148C683.898,105.614,691.464,96.865,696.221,87.977C700.673,79.66,701.728,69.833,697.145,61.587C692.434,53.109,683.525,47.883,673.828,47.682C663.762,47.473,653.257,51.568,648.776,60.584C644.615,68.956,650.175,77.911,654.756,86.06C659.48,94.463,664.198,104.703,673.828,105.148" fill="rgba(96, 138, 201, 0.4)" class="triangle-float3"></path><path d="M1171.7128308183908 35.43500544378689L1159.698425037543 29.57518821221345 1156.9159020806069 50.52670549927154z" fill="rgba(96, 138, 201, 0.4)" class="triangle-float2"></path><path d="M279.21,85.346C288.797,84.945,295.807,77.1,300.168,68.554C304.093,60.863,304.548,51.794,300.113,44.385C295.792,37.165,287.622,33.702,279.21,33.535C270.451,33.361,261.623,36.201,256.814,43.524C251.522,51.583,250.422,61.948,254.973,70.447C259.771,79.407,269.055,85.771,279.21,85.346" fill="rgba(96, 138, 201, 0.4)" class="triangle-float1"></path><path d="M194.43906094713475 70.59645311721536L180.84095350850578 98.40939969818602 207.86702433677868 96.99302334333004z" fill="rgba(96, 138, 201, 0.4)" class="triangle-float1"></path><path d="M611.2617653428631 18.21416590920091L593.7545204168656 13.849119496515542 595.9605732608363 42.29251009185449z" fill="rgba(96, 138, 201, 0.4)" class="triangle-float2"></path><path d="M675.134,62.199C679.672,61.969,684.136,60.626,686.677,56.859C689.558,52.588,690.767,47.112,688.392,42.54C685.85,37.646,680.64,34.317,675.134,34.635C670.038,34.929,666.863,39.526,664.284,43.931C661.666,48.403,658.728,53.685,661.374,58.14C663.992,62.547,670.015,62.458,675.134,62.199" fill="rgba(96, 138, 201, 0.4)" class="triangle-float2"></path><path d="M465.573,34.107C469.018,34.16,471.996,31.96,473.747,28.993C475.53,25.972,476.188,22.195,474.372,19.194C472.606,16.276,468.984,15.441,465.573,15.489C462.263,15.535,458.863,16.577,457.192,19.435C455.508,22.315,456.165,25.853,457.82,28.75C459.49,31.674,462.206,34.056,465.573,34.107" fill="rgba(96, 138, 201, 0.4)" class="triangle-float3"></path><path d="M390.408,41.359C393.618,41.353,396.554,39.397,397.978,36.52C399.268,33.913,398.385,30.898,396.788,28.467C395.363,26.298,393.003,25.015,390.408,24.994C387.772,24.972,385.294,26.159,383.843,28.36C382.219,30.823,381.458,33.916,382.788,36.549C384.239,39.422,387.189,41.365,390.408,41.359" fill="rgba(96, 138, 201, 0.4)" class="triangle-float1"></path><path d="M20.394,51.776C25.11,51.862,29.342,49.188,31.831,45.181C34.479,40.918,35.563,35.613,33.179,31.196C30.689,26.581,25.631,23.713,20.394,23.987C15.544,24.24,11.959,28.105,9.731,32.421C7.706,36.343,7.53,40.909,9.66,44.775C11.87,48.786,15.816,51.692,20.394,51.776" fill="rgba(96, 138, 201, 0.4)" class="triangle-float3"></path><path d="M944.7660821120897 95.38126400524081L952.6149924888302 113.87213808542342 963.2569561922724 87.53235362850033z" fill="rgba(96, 138, 201, 0.4)" class="triangle-float2"></path><path d="M248.414,123.955C256.876,123.986,265.091,120.281,269.419,113.009C273.842,105.578,273.387,96.444,269.336,88.803C264.987,80.601,257.688,72.961,248.414,73.39C239.574,73.799,234.713,82.762,230.597,90.595C226.866,97.695,223.898,105.78,227.677,112.855C231.636,120.267,240.011,123.924,248.414,123.955" fill="rgba(96, 138, 201, 0.4)" class="triangle-float1"></path></g><defs><mask id="SvgjsMask1004"><rect width="1440" height="110" fill="#ffffff"></rect></mask><style>
            @keyframes float1 {
                0%{transform: translate(0, 0)}
                50%{transform: translate(-10px, 0)}
                100%{transform: translate(0, 0)}
            }

            .triangle-float1 {
                animation: float1 5s infinite;
            }

            @keyframes float2 {
                0%{transform: translate(0, 0)}
                50%{transform: translate(-5px, -5px)}
                100%{transform: translate(0, 0)}
            }

            .triangle-float2 {
                animation: float2 4s infinite;
            }

            @keyframes float3 {
                0%{transform: translate(0, 0)}
                50%{transform: translate(0, -10px)}
                100%{transform: translate(0, 0)}
            }

            .triangle-float3 {
                animation: float3 6s infinite;
            }
        </style></defs></svg>