<?xml version="1.0" encoding="utf-8"?>
<!-- Generator: Adobe Illustrator 25.0.0, SVG Export Plug-In . SVG Version: 6.00 Build 0)  -->
<svg version="1.1" id="Layer_1" xmlns="http://www.w3.org/2000/svg" xmlns:xlink="http://www.w3.org/1999/xlink" x="0px" y="0px"
	 viewBox="0 0 500 500" style="enable-background:new 0 0 500 500;" xml:space="preserve">
<style type="text/css">
	.st0{fill:#C53F3F;}
	.st1{opacity:0.8;fill:#FFFFFF;enable-background:new    ;}
	.st2{fill:none;stroke:#263238;stroke-linejoin:round;}
	.st3{fill:none;stroke:#263238;stroke-width:3;stroke-linecap:round;stroke-linejoin:round;}
	.st4{fill:#FFFFFF;stroke:#263238;stroke-linejoin:round;}
	.st5{fill:none;stroke:#263238;stroke-width:2;stroke-linejoin:round;}
	.st6{fill:none;stroke:#263238;stroke-miterlimit:10;stroke-dasharray:2;}
	.st7{fill:none;stroke:#263238;stroke-miterlimit:10;}
	.st8{fill:none;stroke:#263238;stroke-miterlimit:10;stroke-dasharray:2.008,2.008;}
	.st9{fill:#263238;}
	.st10{fill:#C53F3F;stroke:#263238;stroke-linejoin:round;}
	.st11{fill:#263238;stroke:#263238;stroke-linejoin:round;}
	.st12{fill:#5E5E5E;stroke:#263238;stroke-linejoin:round;}
</style>
<g id="freepik--background-simple--inject-31">
	<path class="st0" d="M327.4,70.3c0,0-74-26.3-146.7,15.6S71.4,211,39.9,277.6S26.5,412.1,82,443s93.2-14.7,171-16.9
		s98.7,8.9,163.3-35s76.3-147.8,25.3-224.6S327.4,70.3,327.4,70.3z"/>
	<path class="st1" d="M327.4,70.3c0,0-74-26.3-146.7,15.6S71.4,211,39.9,277.6S26.5,412.1,82,443s93.2-14.7,171-16.9
		s98.7,8.9,163.3-35s76.3-147.8,25.3-224.6S327.4,70.3,327.4,70.3z"/>
	<path class="st0" d="M132.2,247.2l-0.2,0.2c0.1,0,0.2,0,0.3,0L132.2,247.2z"/>
</g>
<g id="freepik--Floor--inject-31">
	<line class="st2" x1="9.4" y1="458.4" x2="493" y2="458.4"/>
</g>
<g id="freepik--Plant--inject-31">
	<path class="st3" d="M211.1,321.2c0,0,0.3,42.2,0.3,53.4s-0.3,59.6-0.3,59.6"/>
	<polygon class="st0" points="236.5,332 226,323.3 255.4,326.6 229.4,318.2 256.1,313.5 226,313.5 249.3,295.9 223,309.1 
		238.2,283.1 217.9,306.4 225,272.3 211.8,304 210.5,268.5 207.8,304.7 193.4,272.8 203.4,307.7 181.9,284.3 200.7,313.1 
		174.1,294.1 199,318.2 170.8,302.8 196.6,320.2 173.3,317.2 195.9,323.6 177.8,326.6 196.6,326 185.5,333.4 211.8,326.3 	"/>
	<path class="st3" d="M201,363.8c0,0-1,8.8-0.3,12.2c0.7,3.9,1,7.9,1,11.8c0,4.4,0.3,4.7,0.3,7.8s-0.3,28.9-0.3,31.2v8.1"/>
	<path class="st3" d="M202,392.1c0,0,1.4-7.4,2.7-10.8s2.4-2.4,2.7-6.4s0.3-5.7,1-7.1c0.5-1.2,1-2.4,1.4-3.7l0.7-2.7"/>
	<polygon class="st0" points="226,372.5 215.5,363.8 244.9,367.1 218.9,358.7 245.6,354 215.5,354 238.8,336.4 212.5,349.6 
		227.7,323.6 207.4,346.9 214.5,312.8 201.4,344.5 200,309.1 197.3,345.2 186.8,312.4 192.9,348.2 174.3,321.6 190.2,353.6 
		165.8,337.7 188.5,358.7 163.4,348.4 186.1,360.7 162.6,358.7 185.5,364.1 169.6,367.7 186.1,366.5 175,373.9 201.4,366.8 	"/>
	<path class="st4" d="M191.8,425.3l-7.2,12c-1.1,1.9-1.4,4.1-0.9,6.2l3.2,12c0.5,1.7,2.1,3,3.9,3h32.9c1.8,0,3.4-1.2,3.9-3l3.2-12
		c0.6-2.1,0.2-4.3-0.9-6.2l-7.2-12c-0.5-0.8-1.4-1.3-2.4-1.3h-26.2C193.1,423.9,192.3,424.5,191.8,425.3z"/>
</g>
<g id="freepik--Refrigerator--inject-31">
	<path class="st2" d="M30.4,130.4h132.8c0.6,0,1.1,0.5,1.1,1.1v0v325.1c0,1-0.8,1.8-1.8,1.8H31.2c-1,0-1.8-0.8-1.8-1.8V131.5
		C29.3,130.9,29.8,130.4,30.4,130.4C30.4,130.4,30.4,130.4,30.4,130.4z"/>
	<line class="st2" x1="96.8" y1="295.7" x2="96.8" y2="458.1"/>
	<line class="st2" x1="96.8" y1="130.1" x2="96.8" y2="289.9"/>
	<path class="st2" d="M38.3,295.6H158c1.5,0,2.7-1.2,2.7-2.7l0,0l0,0c0-1.5-1.2-2.7-2.7-2.7l0,0H38.3c-1.5,0-2.7,1.2-2.7,2.7l0,0
		l0,0C35.5,294.4,36.8,295.6,38.3,295.6C38.3,295.6,38.3,295.6,38.3,295.6z"/>
	<rect x="111.7" y="161.9" class="st2" width="38.4" height="74.6"/>
	<rect x="114.7" y="167.8" class="st2" width="32.4" height="40.8"/>
	<rect x="115" y="213.1" class="st2" width="4.6" height="4.8"/>
	<rect x="121.9" y="213.1" class="st2" width="4.6" height="4.8"/>
	<rect x="128.8" y="213.1" class="st2" width="4.6" height="4.8"/>
	<rect x="135.7" y="213.1" class="st2" width="4.6" height="4.8"/>
	<rect x="142.7" y="213.1" class="st2" width="4.6" height="4.8"/>
	<rect x="115" y="220.7" class="st2" width="4.6" height="4.8"/>
	<rect x="121.9" y="220.7" class="st2" width="4.6" height="4.8"/>
	<rect x="128.8" y="220.7" class="st2" width="4.6" height="4.8"/>
	<rect x="135.7" y="220.7" class="st2" width="4.6" height="4.8"/>
	<rect x="142.7" y="220.7" class="st2" width="4.6" height="4.8"/>
	<rect x="43.9" y="218" class="st2" width="34.3" height="49.4"/>
	<rect x="50.1" y="218" class="st2" width="21.9" height="49.4"/>
	<rect x="50.1" y="218" class="st2" width="21.9" height="15.3"/>
	<rect x="13.7" y="19.1" class="st2" width="4.6" height="4.8"/>
	<rect x="129.1" y="2.9" class="st2" width="21.9" height="15.3"/>
</g>
<g id="freepik--air-conditioner--inject-31">
	<path class="st2" d="M379.4,100H192.3c-3.1-9.3-4.8-19.1-4.8-28.9l-0.1-16.5c0-2.6,2.1-4.6,4.6-4.6h187.6c2.6,0,4.7,2.1,4.7,4.6
		c0,0,0,0,0,0l-0.1,16.7c-0.1,9.4-1.6,18.7-4.5,27.7L379.4,100z"/>
	<rect x="204.3" y="92.4" class="st2" width="163" height="7.6"/>
	<path class="st0" d="M333.7,116.1c3.4,0,6.7-1.5,9-4l-2.7-3c-2.9,3.5-8,3.9-11.5,1.1c-0.6-0.5-1.1-1-1.5-1.6l-2.8,2.9
		C326.4,114.3,329.9,116.1,333.7,116.1z"/>
	<path class="st0" d="M333.7,109.8c1.9,0,3.6-0.9,4.7-2.4l-2.9-3.2c-0.1,1-1.1,1.7-2.1,1.6c-0.9-0.1-1.6-0.9-1.6-1.8
		c0-0.1,0-0.2,0-0.4l-3.2,3.3C329.6,108.7,331.6,109.8,333.7,109.8z"/>
	<path class="st0" d="M333.4,101.9l-0.2,0.2c0.1,0,0.2,0,0.3-0.1L333.4,101.9z"/>
	<path class="st0" d="M348.6,118.7c-8.1,8.3-21.4,8.4-29.7,0.2c-0.4-0.4-0.7-0.7-1.1-1.1l-2.8,2.9c9.2,10.3,25,11.1,35.3,1.9
		c0.3-0.3,0.6-0.6,0.9-0.9L348.6,118.7z"/>
	<path class="st0" d="M333.7,122.9c5.1,0,10-2.1,13.5-5.7l-2.7-3c-5.7,6-15.1,6.3-21.1,0.6c-0.4-0.4-0.9-0.9-1.3-1.3l-2.8,2.9
		C323,120.5,328.2,122.9,333.7,122.9z"/>
</g>
<g id="freepik--music-box--inject-31">
	<rect x="337.8" y="389.1" class="st2" width="100.4" height="12.5"/>
	<rect x="294.1" y="401.6" class="st2" width="187.7" height="56.8"/>
	<rect x="299.1" y="405.2" class="st2" width="177.7" height="49.5"/>
	<line class="st2" x1="358.5" y1="405" x2="358.5" y2="454.7"/>
	<line class="st2" x1="416.7" y1="405" x2="416.7" y2="454.7"/>
	<rect x="307.6" y="366.1" class="st2" width="25.4" height="35.5"/>
	<rect x="442.6" y="366.1" class="st2" width="25.4" height="35.5"/>
	<path class="st0" d="M390.1,387.3l0.2-0.2c-0.1,0-0.2,0-0.3,0L390.1,387.3z"/>
	<rect x="4.3" y="3.8" class="st2" width="25.4" height="35.5"/>
</g>
<g id="freepik--Lamps--inject-31">
	<path class="st2" d="M476.4,71.9c0,3.2-2.6,5.8-5.8,5.8c-3.2,0-5.8-2.6-5.8-5.8c0-3.2,2.6-5.8,5.8-5.8l0,0
		C473.8,66.1,476.4,68.7,476.4,71.9z"/>
	<path class="st2" d="M485,114.8h-28.8V92.1c0-8,6.4-14.4,14.4-14.4l0,0c8,0,14.4,6.4,14.4,14.4V114.8z"/>
	<line class="st5" x1="470.6" y1="66.1" x2="470.6" y2="38"/>
	<path class="st2" d="M89.5,71.9c0,3.2-2.6,5.8-5.8,5.8s-5.8-2.6-5.8-5.8c0-3.2,2.6-5.8,5.8-5.8C86.9,66.1,89.5,68.7,89.5,71.9
		C89.5,71.9,89.5,71.9,89.5,71.9z"/>
	<path class="st2" d="M98.1,114.8H69.3V92.1c0-8,6.4-14.4,14.4-14.4c0,0,0,0,0,0l0,0c8,0,14.4,6.4,14.4,14.4l0,0V114.8z"/>
	<line class="st5" x1="83.7" y1="66.1" x2="83.7" y2="38"/>
	<path class="st0" d="M103.7,110.6l0.2,0.2c0-0.1,0-0.2,0-0.3L103.7,110.6z"/>
	<path class="st2" d="M145.8,24.5c0,3.2-2.6,5.8-5.8,5.8c-3.2,0-5.8-2.6-5.8-5.8c0-3.2,2.6-5.8,5.8-5.8l0,0
		C143.2,18.7,145.8,21.3,145.8,24.5z"/>
</g>
<g id="freepik--TV--inject-31">
	<rect x="307.1" y="170.6" class="st2" width="167.2" height="112.1"/>
	<rect x="311.6" y="175.3" class="st2" width="158.2" height="102.7"/>
	<path class="st0" d="M390.1,169.3l0.2-0.2H390L390.1,169.3z"/>
</g>
<g id="freepik--Character--inject-31">
	<polyline class="st6" points="236.6,147 236.4,218 194.3,163.2 	"/>
	<polyline class="st6" points="174.4,234.8 234.4,218.7 174.1,195.8 	"/>
	<line class="st6" x1="234.4" y1="218.7" x2="199.3" y2="264.4"/>
	<path class="st7" d="M238,149.6h-1"/>
	<path class="st8" d="M235,149.6c-1.4,0-2.8,0.1-4.3,0.3c-35.7,3.3-62,34.9-58.7,70.6c1.8,19.4,12.2,36.9,28.3,47.8"/>
	<path class="st7" d="M201.2,268.9l0.8,0.5"/>
	<path class="st0" d="M188.8,196.9c0-7.8-6.3-14.1-14.1-14.1c-7.8,0-14.1,6.3-14.1,14.1c0,7.8,6.3,14.1,14.1,14.1c0,0,0,0,0,0
		C182.4,211,188.8,204.7,188.8,196.9C188.8,196.9,188.8,196.9,188.8,196.9z"/>
	<path class="st9" d="M174.8,205.8c-1.7,0-3.3-1.1-4-2.7c0-0.1-0.1-0.2-0.1-0.3l-0.1-0.2c-0.5-1.5-1.1-3-1.2-3.2
		c-1.8-2.9-0.8-6.8,2.1-8.5s6.8-0.8,8.5,2.1c0.6,1,0.9,2.2,0.9,3.3c0,0.9-0.2,1.9-0.6,2.7l0,0c-0.2,0.4-0.3,0.7-0.5,1.1
		c-0.2,0.4-0.4,0.9-0.6,1.4c-0.1,0.2-0.1,0.4-0.2,0.6c-0.1,0.5-0.3,1-0.5,1.4C177.8,205,176.4,205.8,174.8,205.8z M174.8,191.5
		c-2.7,0-4.8,2.2-4.8,4.9c0,0.9,0.2,1.7,0.6,2.4v0.1c0,0.1,0.7,1.7,1.3,3.4c0,0.1,0,0.1,0.1,0.2c0,0.1,0,0.1,0.1,0.2
		c0.5,1.1,1.6,1.9,2.8,1.9c1.1,0,2.1-0.6,2.6-1.6c0.2-0.4,0.3-0.7,0.4-1.1c0.1-0.2,0.1-0.4,0.2-0.7c0.2-0.5,0.4-1,0.7-1.5
		c0.2-0.3,0.3-0.7,0.5-1l0,0c0.3-0.7,0.5-1.4,0.5-2.2C179.7,193.7,177.5,191.5,174.8,191.5C174.9,191.5,174.8,191.5,174.8,191.5
		L174.8,191.5z"/>
	<path class="st9" d="M174.8,189.8c-0.4,0-0.7-0.3-0.7-0.7V186c0-0.4,0.3-0.7,0.7-0.7c0.4,0,0.7,0.3,0.7,0.7v3.1
		C175.5,189.5,175.2,189.8,174.8,189.8C174.9,189.8,174.9,189.8,174.8,189.8z"/>
	<path class="st9" d="M167.4,197.1h-2.4c-0.4,0-0.6-0.4-0.6-0.8c0-0.3,0.3-0.6,0.6-0.6h2.4c0.4,0,0.7,0.2,0.8,0.6
		c0,0.4-0.2,0.7-0.6,0.8C167.5,197.1,167.4,197.1,167.4,197.1L167.4,197.1z"/>
	<path class="st9" d="M184.6,197.1h-2.4c-0.4,0-0.7-0.3-0.7-0.7c0-0.4,0.3-0.7,0.7-0.7h2.4c0.4,0,0.7,0.3,0.7,0.7
		C185.2,196.8,184.9,197.1,184.6,197.1z"/>
	<path class="st9" d="M169.1,191.5c-0.2,0-0.3-0.1-0.5-0.2l-1.9-1.9c-0.3-0.2-0.3-0.7-0.1-0.9c0,0,0,0,0.1-0.1
		c0.3-0.3,0.7-0.3,0.9,0l1.9,1.9c0.3,0.3,0.3,0.7,0,0.9C169.5,191.4,169.3,191.5,169.1,191.5L169.1,191.5z"/>
	<path class="st9" d="M180.7,191.5c-0.2,0-0.4-0.1-0.5-0.2c-0.3-0.3-0.3-0.7,0-0.9l1.9-1.9c0.3-0.3,0.7-0.3,0.9,0s0.3,0.7,0,0.9
		l-1.9,1.9C181.1,191.4,180.9,191.5,180.7,191.5z"/>
	<path class="st0" d="M210.6,165.8c0.1-7.8-6.2-14.2-14-14.2c-7.8-0.1-14.2,6.2-14.2,14c-0.1,7.8,6.2,14.2,14,14.2c0,0,0,0,0,0
		C204.2,179.8,210.6,173.6,210.6,165.8z"/>
	<path class="st9" d="M196.5,173.6c-4.4-0.1-7.9-3.8-7.7-8.3c0.1-3.1,1.9-5.8,4.7-7c0.6-0.3,1.2-0.1,1.5,0.5
		c0.3,0.6,0.1,1.2-0.5,1.5c-0.1,0-0.1,0.1-0.2,0.1c-2.9,1.2-4.3,4.5-3.1,7.4c1.2,2.9,4.5,4.3,7.4,3.1c2.9-1.2,4.3-4.5,3.1-7.4
		c-0.5-1.3-1.5-2.3-2.7-2.9c-0.5-0.4-0.6-1.1-0.3-1.6c0.3-0.4,0.8-0.6,1.3-0.4c3.9,2.1,5.3,7,3.1,10.9
		C201.9,172,199.3,173.5,196.5,173.6L196.5,173.6z"/>
	<path class="st9" d="M196.6,164.3c-0.6,0-1.1-0.5-1.1-1.1v-6.8c0-0.6,0.5-1.1,1.1-1.1c0.6,0,1.1,0.5,1.1,1.1l-0.1,6.8
		C197.7,163.8,197.2,164.3,196.6,164.3z"/>
	<circle class="st0" cx="199.3" cy="266.1" r="14.1"/>
	<path class="st9" d="M203.9,262.3h-4.7v-2.7c0-2.1-1.7-3.8-3.8-3.8h-0.2c-2.1,0-3.8,1.7-3.8,3.7c0,0,0,0,0,0v3.4
		c0,0.4,0.3,0.7,0.7,0.7s0.7-0.3,0.7-0.7c0,0,0,0,0,0v-3.4c0-1.3,1.1-2.4,2.4-2.4h0.2c1.3,0,2.4,1.1,2.4,2.4v2.7h-2.1
		c-0.8,0-1.5,0.7-1.5,1.5v8.1c0,0.8,0.7,1.5,1.5,1.5c0,0,0,0,0,0h8.1c0.8,0,1.5-0.7,1.5-1.5v-8.1C205.5,263,204.8,262.3,203.9,262.3
		z M204.1,271.9c0,0.1-0.1,0.2-0.2,0.2c0,0,0,0,0,0h-8.1c-0.1,0-0.2-0.1-0.2-0.2v-8.1c0-0.1,0.1-0.2,0.2-0.2h8.1
		c0.1,0,0.2,0.1,0.2,0.2L204.1,271.9z"/>
	<path class="st9" d="M199.9,265.9c-0.6,0-1.1,0.5-1.1,1.2c0,0.4,0.3,0.8,0.7,1v1.9h0.9v-1.9c0.6-0.2,0.9-0.9,0.6-1.5
		C200.7,266.2,200.3,265.9,199.9,265.9L199.9,265.9z"/>
	<circle class="st0" cx="174.4" cy="234.9" r="14.1"/>
	<path class="st9" d="M176.1,235.1l0.1-7.3c0-1.5-1.2-2.8-2.7-2.8s-2.8,1.2-2.8,2.7v0.6H169c-0.4,0-0.8,0.3-0.8,0.8
		c0,0.4,0.3,0.8,0.8,0.8c0,0,0,0,0,0h1.7v1.1H169c-0.4,0-0.8,0.3-0.8,0.7c0,0,0,0,0,0c0,0.4,0.3,0.8,0.8,0.8h1.7v1.1h-1.7
		c-0.4,0-0.7,0.4-0.7,0.9c0,0.4,0.3,0.6,0.7,0.7h1.5c-2.2,1.6-2.6,4.7-1,6.8c1.6,2.2,4.7,2.6,6.8,1c2.2-1.6,2.6-4.7,1-6.8
		C177,235.8,176.6,235.4,176.1,235.1L176.1,235.1z M173.3,242.4c-1.8,0-3.3-1.6-3.3-3.4c0-1.2,0.7-2.3,1.7-2.8l0.4-0.2l0.1-8.3
		c0-0.7,0.6-1.2,1.2-1.2c0.7,0,1.2,0.6,1.2,1.2c0,0,0,0,0,0l-0.1,8.2l0.4,0.2c1.6,0.9,2.2,2.9,1.3,4.5
		C175.7,241.7,174.5,242.4,173.3,242.4L173.3,242.4z"/>
	<path class="st9" d="M180.5,226.9c-1.7,0-3.1,1.3-3.1,3.1s1.3,3.1,3.1,3.1c1.7,0,3.1-1.3,3.1-3
		C183.6,228.3,182.2,226.9,180.5,226.9C180.5,226.9,180.5,226.9,180.5,226.9z M180.4,231.5c-0.9,0-1.5-0.7-1.5-1.6
		c0-0.9,0.7-1.5,1.6-1.5c0.9,0,1.5,0.7,1.5,1.6c0,0,0,0,0,0C182,230.8,181.3,231.5,180.4,231.5L180.4,231.5z"/>
	<circle class="st0" cx="236.6" cy="152.8" r="14.1"/>
	<path class="st9" d="M243.3,154.8v-8.9l0,0v-0.6c0-0.8-0.7-1.5-1.5-1.5h-8.9c-0.8,0-1.5,0.7-1.5,1.5v2.2v5.8
		c-0.6-0.3-1.3-0.5-1.9-0.5c-1.8,0.2-3,1.9-2.8,3.6c0.2,1.8,1.9,3,3.6,2.8c1.6-0.2,2.8-1.6,2.8-3.2c0-0.4-0.1-0.8-0.3-1.2V149l0,0
		l8.9,0.1l0,0v4.3c-0.6-0.3-1.3-0.5-1.9-0.5c-1.8,0.2-3,1.8-2.8,3.6c0.2,1.8,1.8,3,3.6,2.8c1.6-0.2,2.8-1.6,2.8-3.2
		C243.5,155.6,243.5,155.2,243.3,154.8z M229.4,157.6c-1-0.2-1.6-1.2-1.4-2.2s1.2-1.6,2.2-1.4c0.8,0.2,1.4,0.9,1.4,1.8
		C231.5,157,230.5,157.7,229.4,157.6L229.4,157.6z M241.9,147.5L241.9,147.5l-9-0.1v-2.2l9,0.1V147.5z M239.9,157.7
		c-1-0.2-1.6-1.2-1.3-2.2s1.2-1.6,2.2-1.3c0.8,0.2,1.4,0.9,1.4,1.8C242,157,241,157.8,239.9,157.7L239.9,157.7z"/>
	<path class="st10" d="M312.2,206.3c0,0,4.8,2.1,6.7,6.7s17.9,45.6,18.4,48.8s-17.1,32-17.1,32l-5.1-4.8l5.6-23.5l-7.2-17.3l-4-5.6"
		/>
	<path class="st4" d="M333,271.6c-6.7-3.2-11.9-1.5-13.5-0.8l-4.3,18.1l5.1,4.8C320.2,293.7,327.9,281,333,271.6z"/>
	<path class="st11" d="M313,288.9c0,0,7,13.9,6.1,19.2s-3.3,117.5-3.3,117.5l-15.4,0.6L286,315.5l-4.1,0.6l-6.8,111.3l-17.2-2.7
		l-5.3-108.9l-0.9-24.3L313,288.9z"/>
	<path class="st12" d="M256.7,376.4c0.7-0.1,1.4-0.4,2.1-0.9c0.8-0.7,0.7-0.7,2.4,1.1s1.3,2.5,2.7,1.4s1.1-1.5,2.5,0.1
		s1.1,2.2,3.1,1.9s2.3-0.9,2.3,0.8s-0.3,2.1,0.5,2.4c1,0.3,1.9,0.9,2.6,1.8c0.6,0.9,1,0.4,1.3,1.4c0.2,0.6,0.5,1.1,1,1.5
		L256.7,376.4z"/>
	<path class="st12" d="M256.8,376.8c0.8,1.2,1.4,2.5,1.6,3.9c0.3,2.1-0.3,3.7,0.8,4.7s1.8,0.5,2,1.4s-0.3,1.8,0.2,2.1
		s2.7-1.1,2.7-0.4s-0.2,1,0.6,0.7s0.9-1.4,1.4-0.3s1,2.5,1.3,2.3c1-0.7,2.2-1.2,3.4-1.3c0.7,0,1.4,0.1,2.1,0.4
		c0.3,0.1,0.9,0.7,1.2,0.1s3.3-2.1,3.3-2.1L256.8,376.8z"/>
	<path class="st4" d="M256.7,376.4l20.7,11.8C277.4,388.3,262.3,389.2,256.7,376.4z"/>
	<path class="st12" d="M295.5,359.3c0.2-0.7,0.3-1.5,0.1-2.2c-0.3-1-0.3-0.9,2-1.7s2.8,0,2.5-1.8s-0.9-1.7,1.2-2.2s2.4,0,3-1.9
		s0.2-2.4,1.7-1.7s1.7,1.2,2.4,0.6c0.7-0.8,1.7-1.3,2.7-1.6c1.1-0.2,0.8-0.7,1.9-0.5c0.6,0.1,1.2,0,1.8-0.2L295.5,359.3z"/>
	<path class="st12" d="M295.9,359.4c1.4-0.2,2.9-0.1,4.3,0.3c2,0.6,3.2,2,4.5,1.4s1.3-1.3,2.1-1.1s1.4,1.1,2,0.7s0.2-2.9,0.8-2.6
		s0.8,0.6,0.9-0.3s-0.9-1.4,0.3-1.4s2.7,0.2,2.6-0.2c-0.2-1.2-0.1-2.5,0.3-3.6c0.3-0.7,0.7-1.2,1.3-1.7c0.2-0.3,1-0.5,0.6-1
		s-0.4-3.8-0.4-3.8L295.9,359.4z"/>
	<path class="st4" d="M295.5,359.3l19.8-13.3C315.4,346,309.4,360,295.5,359.3z"/>
	<path class="st4" d="M258.5,422.9c0,0-4.4,1.5-4.4,3.3s2.1,16.6,2.1,16.6s-10.1,5.6-10.9,7.1s-0.3,8.6-0.3,8.6h30.2
		c0,0,0.9-7.4,0.9-10.1c-0.1-2.6-0.4-5.1-0.9-7.7l1.8-15.1C276.8,425.6,268.2,419,258.5,422.9z"/>
	<path class="st4" d="M244.9,458.4H275c0,0,0.2-1.6,0.4-3.5h-30.8C244.7,456.7,244.9,458.4,244.9,458.4z"/>
	<path class="st4" d="M270.9,421.7c-2.3-2.2-5.4-3.4-8.6-3.5c-5,0-7.1,3-7.1,3l3,14.8h8L270.9,421.7z"/>
	<path class="st4" d="M267.4,437.3h-10.2c-0.5,0-0.8-0.4-0.8-0.8l0,0c0-0.5,0.4-0.8,0.8-0.8h10.2c0.5,0,0.8,0.4,0.8,0.8l0,0
		C268.2,436.9,267.8,437.3,267.4,437.3z"/>
	<path class="st4" d="M267.4,439.3h-10.2c-0.5,0-0.8-0.4-0.8-0.8l0,0c0-0.5,0.4-0.8,0.8-0.8h10.2c0.5,0,0.8,0.4,0.8,0.8l0,0
		C268.2,438.9,267.8,439.3,267.4,439.3z"/>
	<path class="st4" d="M267.4,441.4h-10.2c-0.5,0-0.8-0.4-0.8-0.8l0,0c0-0.5,0.4-0.8,0.8-0.8h10.2c0.5,0,0.8,0.4,0.8,0.8l0,0
		C268.2,441,267.8,441.4,267.4,441.4z"/>
	<path class="st4" d="M267.4,443.4h-10.2c-0.5,0-0.8-0.4-0.8-0.8l0,0c0-0.5,0.4-0.8,0.8-0.8h10.2c0.5,0,0.8,0.4,0.8,0.8l0,0
		C268.2,443,267.8,443.4,267.4,443.4z"/>
	<path class="st4" d="M316.6,422.9c0,0,4.4,1.5,4.4,3.3s-2.1,16.6-2.1,16.6s10.1,5.6,11,7.1s0.3,8.6,0.3,8.6H300
		c0,0-0.9-7.4-0.9-10.1c0.1-2.6,0.4-5.1,0.9-7.7l-1.8-15.1C298.2,425.6,306.8,419,316.6,422.9z"/>
	<path class="st4" d="M330.2,458.4H300c0,0-0.2-1.6-0.4-3.5h30.8C330.3,456.7,330.2,458.4,330.2,458.4z"/>
	<path class="st4" d="M304.1,421.7c2.3-2.2,5.4-3.4,8.6-3.5c5,0,7.1,3,7.1,3l-3,14.8h-8L304.1,421.7z"/>
	<path class="st4" d="M317.8,437.3h-10.2c-0.5,0-0.8-0.4-0.8-0.8l0,0c0-0.5,0.4-0.8,0.8-0.8h10.2c0.5,0,0.8,0.4,0.8,0.8l0,0
		C318.6,436.9,318.2,437.3,317.8,437.3z"/>
	<path class="st4" d="M317.8,439.3h-10.2c-0.5,0-0.8-0.4-0.8-0.8l0,0c0-0.5,0.4-0.8,0.8-0.8h10.2c0.5,0,0.8,0.4,0.8,0.8l0,0
		C318.6,438.9,318.2,439.3,317.8,439.3z"/>
	<path class="st4" d="M317.8,441.4h-10.2c-0.5,0-0.8-0.4-0.8-0.8l0,0c0-0.5,0.4-0.8,0.8-0.8h10.2c0.5,0,0.8,0.4,0.8,0.8l0,0
		C318.6,441,318.2,441.4,317.8,441.4z"/>
	<path class="st4" d="M317.8,443.4h-10.2c-0.5,0-0.8-0.4-0.8-0.8l0,0c0-0.5,0.4-0.8,0.8-0.8h10.2c0.5,0,0.8,0.4,0.8,0.8l0,0
		C318.6,443,318.2,443.4,317.8,443.4z"/>
	<path class="st10" d="M273.9,178.5c0,0-0.8,13.6-1,15.6s-7.8,6-14.2,9.1s-11.9,4.4-11.6,7.3s4.1,109,4.1,109s8.8-0.3,21.8-5.2
		s20.7-11.1,27.2-16.6c3.9-3.3,8.3-6,13-8c0,0,1-50.2,1-59s1.8-17.9,1.3-21.5s-16-8-19.9-9.8l-3.9-1.8c0,0,0-5,1.6-8.1l1.5-3.1
		l-19.9-8.8L273.9,178.5z"/>
	<path class="st4" d="M300,297.7c3.9-3.3,8.3-6,13-8c0,0,0-0.3,0-0.8c-3.9,0.2-7.7,2.2-24.3,7.8c-12.4,4-25.2,6.8-38.1,8.1
		c0.3,8.9,0.5,14.6,0.5,14.6s8.8-0.3,21.7-5.2S293.6,303.1,300,297.7z"/>
	<path class="st2" d="M250.3,297.5c0,0,46.1-6.4,62.6-11.7"/>
	<path class="st4" d="M295.4,199.4l-3.9-1.8c0,0,0-5,1.6-8.1l1.5-3.1l-19.9-8.8l-0.8,1c0,0-0.8,13.6-1,15.6
		c-0.2,1.4-3.4,3.5-7.5,5.6c2.5,2.8,9.1,9.3,16.8,10.9c6.2,1.3,11.6-5.4,14.8-10.7C296.3,199.8,295.8,199.5,295.4,199.4z"/>
	<path class="st11" d="M285.1,222.7l0.2-2.1c0.3-2.7,0.3-5.4,0-8.1l-0.2-2.1c0,0-4.9-0.3-6.4,2s-0.8,6.5-0.4,7.8
		C278.9,222.3,285.1,222.7,285.1,222.7z"/>
	<path class="st11" d="M285.1,237.6l0.2-2.1c0.3-2.7,0.3-5.4,0-8.1l-0.2-2.1c0,0-4.9-0.3-6.4,2s-0.8,6.5-0.4,7.8
		C278.9,237.3,285.1,237.6,285.1,237.6z"/>
	<line class="st2" x1="285.1" y1="222.7" x2="285.1" y2="225.3"/>
	<line class="st2" x1="283.6" y1="222.7" x2="283.6" y2="225.1"/>
	<path class="st11" d="M293.1,189.4l1.5-3.1l-19.9-8.8l-0.8,1l0,0l1.7,3c0,0,5.2,9.7,16.3,12.5C292.1,192.4,292.5,190.9,293.1,189.4
		z"/>
	<path class="st4" d="M296.4,156.5c0,0,3.1,7.3,3.1,8.3c-0.1,0.7-0.3,1.5-0.8,2.1c0,0,4.7,4.4,4.4,5.4s-2.6,2.3-2.6,2.3
		s1.8,9.6,1.8,10.9s-3.6,4.4-10.9,3.6c-4.4-0.5-8.6-2.4-11.9-5.4c0,0-6.7-7.3-7-11.6s4.9-17.1,11.4-18.9S296.4,156.5,296.4,156.5z"
		/>
	<path class="st9" d="M295.4,167.8c0,0.9-0.4,1.7-0.9,1.7s-0.9-0.8-0.9-1.7s0.4-1.7,0.9-1.7S295.4,166.9,295.4,167.8z"/>
	<path class="st2" d="M291.5,165.6c0,0,2.6-3.4,5.7-1.6"/>
	<path class="st2" d="M291,175.7c0,0,1.5,2.6,7,1.6"/>
	<path class="st11" d="M272.4,155.8c0,0-8.3,3.1-9.1,8s6.2,11.6,7.3,12.7s7,1,8.5-1s-0.8-5.4,0.8-6.7s3.6-0.8,4.1-4.7
		s-1.3-5.4,1.3-6.7s6,1.6,11.1-0.8s3.6-11.4-2.1-14.8s-14.8,1.3-15,3.1s1.5,4.1,0,4.4s-4.9-0.8-5.4,1.8
		C273.6,152.7,273.1,154.3,272.4,155.8z"/>
	<path class="st4" d="M279.4,177.2c0,0-2.9-5.7-6.7-5.2s-2.9,9.1,0,10.9s6.7-1.8,6.7-1.8"/>
	<path class="st10" d="M250.2,207.1c0,0-7.5,3.1-8.8,7.2s-17.4,41.9-18.9,45s0.3,8.5,3.1,9.6s4.4,0,7.2-2.1s17.4-26.4,17.4-26.4"/>
	<path class="st11" d="M231.5,207.8l9.1-0.2c1,0,1.9,0.8,1.9,1.8l0.4,24.9c0,1-0.8,1.9-1.8,1.9l-9.1,0.2c-1,0-1.9-0.8-1.9-1.8
		c0,0,0,0,0,0l-0.4-24.9C229.7,208.6,230.5,207.8,231.5,207.8C231.5,207.8,231.5,207.8,231.5,207.8L231.5,207.8z"/>
	<path class="st4" d="M227.6,242.1c0,0-0.1-14.9-0.2-17.1s2.4-4.3,4-5.3s8.2-4.1,9-3.8s0.5,1.7-0.5,2.4s-5.8,3.4-6.7,4.1
		s-0.8,3.6-0.8,3.6s5.5-2.6,7.1-3.3s3.4-1.5,4.1-0.9c0.4,0.4,0.5,1,0.3,1.5c0.4,0.5,0.6,1.2,0.6,1.8c-0.1,0.9-4,4.6-5.2,5.6
		c-0.9,0.7-1.7,1.5-2.5,2.3c0,0,7.3-1.8,7.8-1.9s1.1,1-0.3,1.9c-2.2,1-4.4,1.8-6.8,2.6c-0.3,1.8-0.8,3.5-1.5,5.1
		c-0.6,1.7-1.7,3.1-3.2,4.1c0,0,3.1,16.4,0.8,20.8s-9.2,7.5-12,2.1s-1.1-12.1,1.7-15.7S227.6,242.1,227.6,242.1z"/>
	<path class="st10" d="M234.1,256.3c-6.1,2.6-10.2,0.1-12.3-2c-1.9,3.8-2.7,9.1-0.4,13.6c2.8,5.4,9.8,2.3,12-2.1
		C234.4,264,234.4,260.2,234.1,256.3z"/>
	<line class="st2" x1="243.8" y1="223.4" x2="233.8" y2="229.7"/>
	<line class="st2" x1="243.8" y1="223.4" x2="233.8" y2="229.7"/>
	<path class="st4" d="M317.4,284.9l-8.3,1.8c-0.9,0.2-6.9,5.9-7.6,6.9s1.2,1.8,2.1,1.8s5.7-3.5,5.7-3.5L308,295l9.6,8.3
		c0,0,2.6-4.6,3.8-7.6c0.9-2.5,1.5-5,1.8-7.6"/>
	<path class="st9" d="M18.6,24.9l0.1-7.3c0-1.5-1.2-2.8-2.7-2.8s-2.8,1.2-2.8,2.7V18h-1.7c-0.4,0-0.8,0.3-0.8,0.8
		c0,0.4,0.3,0.8,0.8,0.8c0,0,0,0,0,0h1.7v1.1h-1.7c-0.4,0-0.8,0.3-0.8,0.7c0,0,0,0,0,0c0,0.4,0.3,0.8,0.8,0.8h1.7v1.1h-1.7
		c-0.4,0-0.7,0.4-0.7,0.9c0,0.4,0.3,0.6,0.7,0.7H13c-2.2,1.6-2.6,4.7-1,6.8c1.6,2.2,4.7,2.6,6.8,1c2.2-1.6,2.6-4.7,1-6.8
		C19.5,25.6,19.1,25.2,18.6,24.9L18.6,24.9z M15.8,32.2c-1.8,0-3.3-1.6-3.3-3.4c0-1.2,0.7-2.3,1.7-2.8l0.4-0.2l0.1-8.3
		c0-0.7,0.6-1.2,1.2-1.2c0.7,0,1.2,0.6,1.2,1.2c0,0,0,0,0,0L17,25.7l0.4,0.2c1.6,0.9,2.2,2.9,1.3,4.5C18.2,31.5,17,32.2,15.8,32.2
		L15.8,32.2z"/>
</g>
<path class="st0" d="M41.2,21c0-3.4-1.5-6.7-4-9l-3,2.7c3.5,2.9,4,8,1.1,11.5c-0.5,0.6-1,1.1-1.6,1.5l2.9,2.8
	C39.5,28.3,41.2,24.7,41.2,21z"/>
<path class="st0" d="M34.9,21c0-1.9-0.9-3.6-2.4-4.7l-3.2,2.9c1,0.2,1.7,1.1,1.5,2.1c-0.2,0.9-0.9,1.5-1.8,1.5c-0.1,0-0.2,0-0.4,0
	l3.3,3.2C33.8,25.1,34.9,23.1,34.9,21z"/>
<path class="st0" d="M27.1,21.3l0.2,0.2c0-0.1,0-0.2,0-0.3L27.1,21.3z"/>
<path class="st0" d="M43.9,6.1c8.3,8.1,8.4,21.4,0.2,29.7c-0.4,0.4-0.7,0.7-1.1,1.1l2.9,2.8c10.3-9.3,11.1-25.1,1.8-35.4
	c-0.3-0.3-0.5-0.6-0.8-0.9L43.9,6.1z"/>
<path class="st0" d="M48,21c0-5.1-2.1-10-5.7-13.6l-3,2.7c6,5.7,6.3,15.1,0.6,21.1c-0.4,0.4-0.9,0.9-1.3,1.3l2.9,2.8
	C45.6,31.7,48,26.5,48,21z"/>
<path class="st0" d="M140.4,39.1c3.4,0,6.7-1.5,9-4.1l-2.7-3c-2.8,3.5-8,4-11.5,1.2c-0.6-0.5-1.1-1-1.5-1.6l-2.8,2.9
	C133.2,37.4,136.7,39.1,140.4,39.1z"/>
<path class="st0" d="M140.4,32.8c1.9,0,3.6-0.9,4.7-2.4l-2.9-3.2c-0.2,1-1.1,1.7-2.1,1.5c-0.9-0.1-1.5-0.9-1.5-1.8
	c0-0.1,0-0.2,0-0.4l-3.2,3.3C136.3,31.7,138.3,32.8,140.4,32.8z"/>
<path class="st0" d="M155.4,41.6c-8.1,8.3-21.4,8.6-29.7,0.5c-0.4-0.4-0.7-0.7-1.1-1.1l-2.8,2.9c9.4,10.2,25.2,10.9,35.4,1.5
	c0.3-0.3,0.6-0.5,0.9-0.8L155.4,41.6z"/>
<path class="st0" d="M140.5,45.9c5.1,0,10-2.2,13.5-5.8l-2.7-3c-5.6,6.1-15,6.4-21.1,0.8c-0.5-0.4-0.9-0.9-1.3-1.3l-2.8,2.9
	C129.7,43.6,135,45.9,140.5,45.9z"/>
</svg>
