<?xml version="1.0" ?><svg id="Line" style="enable-background:new 0 0 128 128;" version="1.1" viewBox="0 0 128 128" xml:space="preserve" xmlns="http://www.w3.org/2000/svg" xmlns:xlink="http://www.w3.org/1999/xlink"><g><path d="M84,38H44c-1.654,0-3,1.346-3,3v27c0,1.654,1.346,3,3,3h40c1.654,0,3-1.346,3-3V41C87,39.346,85.654,38,84,38z M85,68   c0,0.552-0.448,1-1,1H44c-0.552,0-1-0.448-1-1V41c0-0.551,0.448-1,1-1h40c0.552,0,1,0.449,1,1V68z"/><path d="M79,43H49c-1.654,0-3,1.346-3,3v17c0,1.654,1.346,3,3,3h30c1.654,0,3-1.346,3-3V46C82,44.346,80.654,43,79,43z M80,63   c0,0.551-0.448,1-1,1H49c-0.552,0-1-0.449-1-1V46c0-0.551,0.448-1,1-1h30c0.552,0,1,0.449,1,1V63z"/><path d="M80,73c-3.859,0-7,3.141-7,7s3.141,7,7,7s7-3.141,7-7S83.859,73,80,73z M80,85c-2.757,0-5-2.243-5-5s2.243-5,5-5   s5,2.243,5,5S82.757,85,80,85z"/><path d="M69,80c0-2.757-2.243-5-5-5s-5,2.243-5,5s2.243,5,5,5S69,82.757,69,80z M61,80c0-1.654,1.346-3,3-3s3,1.346,3,3   s-1.346,3-3,3S61,81.654,61,80z"/><path d="M49,85c2.757,0,5-2.243,5-5s-2.243-5-5-5s-5,2.243-5,5S46.243,85,49,85z M49,77c1.654,0,3,1.346,3,3s-1.346,3-3,3   s-3-1.346-3-3S47.346,77,49,77z"/><path d="M62,104c0-2.206-1.794-4-4-4H48c-2.206,0-4,1.794-4,4s1.794,4,4,4h10C60.206,108,62,106.206,62,104z M46,104   c0-1.103,0.897-2,2-2h10c1.103,0,2,0.897,2,2s-0.897,2-2,2H48C46.897,106,46,105.103,46,104z"/><path d="M80,100H70c-2.206,0-4,1.794-4,4s1.794,4,4,4h10c2.206,0,4-1.794,4-4S82.206,100,80,100z M80,106H70c-1.103,0-2-0.897-2-2   s0.897-2,2-2h10c1.103,0,2,0.897,2,2S81.103,106,80,106z"/><path d="M48,98h10c2.206,0,4-1.794,4-4s-1.794-4-4-4H48c-2.206,0-4,1.794-4,4S45.794,98,48,98z M48,92h10c1.103,0,2,0.897,2,2   s-0.897,2-2,2H48c-1.103,0-2-0.897-2-2S46.897,92,48,92z"/><path d="M80,90H70c-2.206,0-4,1.794-4,4s1.794,4,4,4h10c2.206,0,4-1.794,4-4S82.206,90,80,90z M80,96H70c-1.103,0-2-0.897-2-2   s0.897-2,2-2h10c1.103,0,2,0.897,2,2S81.103,96,80,96z"/><path d="M73,112H55c-1.654,0-3,1.346-3,3s1.346,3,3,3h18c1.654,0,3-1.346,3-3S74.654,112,73,112z M73,116H55c-0.552,0-1-0.448-1-1   s0.448-1,1-1h18c0.552,0,1,0.448,1,1S73.552,116,73,116z"/><circle cx="50" cy="30" r="1"/><circle cx="78" cy="30" r="1"/><path d="M64,31c7.168,0,13-5.832,13-13S71.168,5,64,5s-13,5.832-13,13S56.832,31,64,31z M64,7c6.065,0,11,4.935,11,11   s-4.935,11-11,11s-11-4.935-11-11S57.935,7,64,7z"/><path d="M64,27c4.963,0,9-4.038,9-9s-4.037-9-9-9s-9,4.038-9,9S59.037,27,64,27z M64,11c3.859,0,7,3.14,7,7s-3.141,7-7,7   s-7-3.14-7-7S60.141,11,64,11z"/><path d="M111,43h-1.296c-0.34-0.551-0.939-0.948-1.621-0.997l-12.007-1c-0.529-0.041-1.05,0.134-1.439,0.495   c-0.154,0.143-0.274,0.317-0.375,0.502H92c0-4.674-3.582-8.525-8.146-8.957l-2.866-17.198C79.644,7.244,72.499,1,64,1   S48.356,7.244,47.014,15.835l-2.868,17.208C39.582,33.475,36,37.326,36,42h-2.261c-0.101-0.186-0.221-0.359-0.375-0.502   c-0.39-0.36-0.901-0.536-1.446-0.494l-11.988,0.999c-0.69,0.05-1.292,0.447-1.633,0.998H17c-1.654,0-3,1.346-3,3v18   c0,1.654,1.346,3,3,3h1.296c0.34,0.549,0.939,0.946,1.626,0.997l12.001,1c0.052,0.004,0.104,0.006,0.155,0.006   c0.481,0,0.933-0.175,1.284-0.5c0.155-0.143,0.275-0.317,0.376-0.503H36v46c0,7.168,5.832,13,13,13h30c7.168,0,13-5.832,13-13V68   h2.261c0.101,0.186,0.221,0.36,0.376,0.503c0.352,0.325,0.802,0.5,1.287,0.5c0.052,0,0.105-0.002,0.158-0.007l11.995-0.999   c0.687-0.051,1.287-0.448,1.626-0.997H111c1.654,0,3-1.346,3-3V46C114,44.346,112.654,43,111,43z M96.005,52h11.998l0.001,2h-12   L96.005,52z M96.004,56h12.001l0.001,2H96.003L96.004,56z M108.002,50H96.006l0.001-2h11.995L108.002,50z M96.002,60h12.004   l0.001,2H96.002L96.002,60z M108,44l0.001,2H96.007l0.001-2.996L108,44z M48.988,16.154C50.179,8.532,56.492,3,64,3   s13.821,5.532,15.014,13.165L81.82,33H46.18L48.988,16.154z M19.994,52h12.003l-0.001,2H19.995L19.994,52z M19.996,56h12l-0.001,2   H19.997L19.996,56z M31.998,50H19.994l-0.001-2h12.006L31.998,50z M19.998,60h11.997l-0.001,2H19.998L19.998,60z M32,43l-0.001,3   H19.992l-0.001-1.954L32,43z M16,64V46c0-0.551,0.448-1,1-1h1v20h-1C16.448,65,16,64.551,16,64z M20.083,66.004   C20.079,66.003,20.004,66,20,66l-0.001-2h11.994l-0.001,2.996L20.083,66.004z M34,66V44h2v22H34z M90,114c0,6.065-4.935,11-11,11   H49c-6.065,0-11-4.935-11-11V42c0-3.86,3.141-7,7-7h38c3.859,0,7,3.14,7,7V114z M92,44h2v22h-2V44z M107.917,66.004L96,67l0.001-3   h12.007l0.001,1.954c-0.011,0.019-0.053,0.047-0.079,0.049C107.925,66.003,107.921,66.003,107.917,66.004z M112,64   c0,0.551-0.448,1-1,1h-1V45h1c0.552,0,1,0.449,1,1V64z"/></g></svg>