<svg xmlns="http://www.w3.org/2000/svg" version="1.1" xmlns:xlink="http://www.w3.org/1999/xlink" xmlns:svgjs="http://svgjs.com/svgjs" width="1440" height="100" preserveAspectRatio="none" viewBox="0 0 1440 100"><g mask="url(&quot;#SvgjsMask1024&quot;)" fill="none"><rect width="1440" height="100" x="0" y="0" fill="rgba(239, 245, 251, 1)"></rect><path d="M43 100L143 0L242 0L142 100z" fill="url(#SvgjsLinearGradient1025)"></path><path d="M252.60000000000002 100L352.6 0L477.1 0L377.1 100z" fill="url(#SvgjsLinearGradient1025)"></path><path d="M516.2 100L616.2 0L707.7 0L607.7 100z" fill="url(#SvgjsLinearGradient1025)"></path><path d="M752.8000000000001 100L852.8000000000001 0L909.8000000000001 0L809.8000000000001 100z" fill="url(#SvgjsLinearGradient1025)"></path><path d="M1407 100L1307 0L1059.5 0L1159.5 100z" fill="url(#SvgjsLinearGradient1026)"></path><path d="M1172.4 100L1072.4 0L728.9000000000001 0L828.9000000000001 100z" fill="url(#SvgjsLinearGradient1026)"></path><path d="M947.8 100L847.8 0L561.3 0L661.3 100z" fill="url(#SvgjsLinearGradient1026)"></path><path d="M725.1999999999999 100L625.1999999999999 0L490.19999999999993 0L590.1999999999999 100z" fill="url(#SvgjsLinearGradient1026)"></path><path d="M1373.7079518628477 100L1440 33.70795186284779L1440 100z" fill="url(#SvgjsLinearGradient1025)"></path><path d="M0 100L66.29204813715221 100L 0 33.70795186284779z" fill="url(#SvgjsLinearGradient1026)"></path></g><defs><mask id="SvgjsMask1024"><rect width="1440" height="100" fill="#ffffff"></rect></mask><linearGradient x1="0%" y1="100%" x2="100%" y2="0%" id="SvgjsLinearGradient1025"><stop stop-color="rgba(206, 227, 246, 1)" offset="0"></stop><stop stop-opacity="0" stop-color="rgba(206, 227, 246, 1)" offset="0.66"></stop></linearGradient><linearGradient x1="100%" y1="100%" x2="0%" y2="0%" id="SvgjsLinearGradient1026"><stop stop-color="rgba(206, 227, 246, 1)" offset="0"></stop><stop stop-opacity="0" stop-color="rgba(206, 227, 246, 1)" offset="0.66"></stop></linearGradient></defs></svg>