<svg xmlns="http://www.w3.org/2000/svg" version="1.1" xmlns:xlink="http://www.w3.org/1999/xlink" xmlns:svgjs="http://svgjs.com/svgjs" width="1440" height="110" preserveAspectRatio="none" viewBox="0 0 1440 110"><g mask="url(&quot;#SvgjsMask7602&quot;)" fill="none"><rect width="1440" height="110" x="0" y="0" fill="url(#SvgjsLinearGradient7603)"></rect><path d="M1021 28L993 0" stroke-width="10" stroke="url(#SvgjsLinearGradient7604)" stroke-linecap="round" class="BottomRight"></path><path d="M869 73L897 101" stroke-width="8" stroke="url(#SvgjsLinearGradient7604)" stroke-linecap="round" class="BottomRight"></path><path d="M296 40L366 110" stroke-width="6" stroke="url(#SvgjsLinearGradient7605)" stroke-linecap="round" class="BottomRight"></path><path d="M1332 6L1380 54" stroke-width="10" stroke="url(#SvgjsLinearGradient7604)" stroke-linecap="round" class="BottomRight"></path><path d="M1332 9L1380 57" stroke-width="8" stroke="url(#SvgjsLinearGradient7606)" stroke-linecap="round" class="TopLeft"></path><path d="M206 47L175 16" stroke-width="10" stroke="url(#SvgjsLinearGradient7604)" stroke-linecap="round" class="BottomRight"></path><path d="M776 107L747 78" stroke-width="6" stroke="url(#SvgjsLinearGradient7607)" stroke-linecap="round" class="TopLeft"></path><path d="M854 106L814 66" stroke-width="6" stroke="url(#SvgjsLinearGradient7604)" stroke-linecap="round" class="BottomRight"></path><path d="M990 18L1053 81" stroke-width="10" stroke="url(#SvgjsLinearGradient7606)" stroke-linecap="round" class="TopLeft"></path><path d="M1014 60L1066 112" stroke-width="10" stroke="url(#SvgjsLinearGradient7605)" stroke-linecap="round" class="BottomRight"></path><path d="M900 55L849 4" stroke-width="8" stroke="url(#SvgjsLinearGradient7604)" stroke-linecap="round" class="BottomRight"></path><path d="M1163 64L1097 -2" stroke-width="10" stroke="url(#SvgjsLinearGradient7605)" stroke-linecap="round" class="BottomRight"></path><path d="M1197 50L1270 123" stroke-width="10" stroke="url(#SvgjsLinearGradient7607)" stroke-linecap="round" class="TopLeft"></path><path d="M804 98L841 135" stroke-width="6" stroke="url(#SvgjsLinearGradient7604)" stroke-linecap="round" class="BottomRight"></path><path d="M537 88L480 31" stroke-width="10" stroke="url(#SvgjsLinearGradient7606)" stroke-linecap="round" class="TopLeft"></path><path d="M1076 63L1034 21" stroke-width="8" stroke="url(#SvgjsLinearGradient7607)" stroke-linecap="round" class="TopLeft"></path><path d="M1030 105L1109 184" stroke-width="8" stroke="url(#SvgjsLinearGradient7605)" stroke-linecap="round" class="BottomRight"></path><path d="M1163 31L1242 110" stroke-width="6" stroke="url(#SvgjsLinearGradient7607)" stroke-linecap="round" class="TopLeft"></path><path d="M1405 83L1466 144" stroke-width="10" stroke="url(#SvgjsLinearGradient7606)" stroke-linecap="round" class="TopLeft"></path><path d="M1030 85L1071 126" stroke-width="10" stroke="url(#SvgjsLinearGradient7607)" stroke-linecap="round" class="TopLeft"></path><path d="M784 18L863 97" stroke-width="6" stroke="url(#SvgjsLinearGradient7606)" stroke-linecap="round" class="TopLeft"></path><path d="M9 20L-32 -21" stroke-width="10" stroke="url(#SvgjsLinearGradient7606)" stroke-linecap="round" class="TopLeft"></path><path d="M543 67L469 -7" stroke-width="10" stroke="url(#SvgjsLinearGradient7604)" stroke-linecap="round" class="BottomRight"></path><path d="M737 96L694 53" stroke-width="6" stroke="url(#SvgjsLinearGradient7604)" stroke-linecap="round" class="BottomRight"></path><path d="M456 70L382 -4" stroke-width="6" stroke="url(#SvgjsLinearGradient7607)" stroke-linecap="round" class="TopLeft"></path><path d="M1098 80L1143 125" stroke-width="8" stroke="url(#SvgjsLinearGradient7607)" stroke-linecap="round" class="TopLeft"></path><path d="M378 22L330 -26" stroke-width="10" stroke="url(#SvgjsLinearGradient7604)" stroke-linecap="round" class="BottomRight"></path><path d="M649 65L730 146" stroke-width="6" stroke="url(#SvgjsLinearGradient7606)" stroke-linecap="round" class="TopLeft"></path><path d="M44 79L119 154" stroke-width="6" stroke="url(#SvgjsLinearGradient7605)" stroke-linecap="round" class="BottomRight"></path><path d="M1070 38L1141 109" stroke-width="6" stroke="url(#SvgjsLinearGradient7607)" stroke-linecap="round" class="TopLeft"></path><path d="M1316 46L1259 -11" stroke-width="6" stroke="url(#SvgjsLinearGradient7606)" stroke-linecap="round" class="TopLeft"></path><path d="M983 101L1058 176" stroke-width="10" stroke="url(#SvgjsLinearGradient7607)" stroke-linecap="round" class="TopLeft"></path><path d="M297 1L352 56" stroke-width="6" stroke="url(#SvgjsLinearGradient7604)" stroke-linecap="round" class="BottomRight"></path><path d="M819 108L850 139" stroke-width="8" stroke="url(#SvgjsLinearGradient7605)" stroke-linecap="round" class="BottomRight"></path><path d="M104 88L184 168" stroke-width="8" stroke="url(#SvgjsLinearGradient7604)" stroke-linecap="round" class="BottomRight"></path><path d="M218 100L278 160" stroke-width="6" stroke="url(#SvgjsLinearGradient7606)" stroke-linecap="round" class="TopLeft"></path><path d="M1011 110L1052 151" stroke-width="10" stroke="url(#SvgjsLinearGradient7604)" stroke-linecap="round" class="BottomRight"></path></g><defs><mask id="SvgjsMask7602"><rect width="1440" height="110" fill="#ffffff"></rect></mask><linearGradient x1="100%" y1="50%" x2="0%" y2="50%" gradientUnits="userSpaceOnUse" id="SvgjsLinearGradient7603"><stop stop-color="rgba(220, 231, 243, 1)" offset="0.94"></stop><stop stop-color="rgba(233, 243, 255, 1)" offset="1"></stop></linearGradient><linearGradient x1="0%" y1="0%" x2="100%" y2="100%" id="SvgjsLinearGradient7604"><stop stop-color="rgba(255, 0, 0, 0)" offset="0"></stop><stop stop-color="rgba(255, 0, 0, 1)" offset="1"></stop></linearGradient><linearGradient x1="0%" y1="0%" x2="100%" y2="100%" id="SvgjsLinearGradient7605"><stop stop-color="rgba(0, 33, 69, 0)" offset="0"></stop><stop stop-color="rgba(0, 33, 69, 1)" offset="1"></stop></linearGradient><linearGradient x1="100%" y1="100%" x2="0%" y2="0%" id="SvgjsLinearGradient7606"><stop stop-color="rgba(0, 33, 69, 0)" offset="0"></stop><stop stop-color="rgba(0, 33, 69, 1)" offset="1"></stop></linearGradient><linearGradient x1="100%" y1="100%" x2="0%" y2="0%" id="SvgjsLinearGradient7607"><stop stop-color="rgba(255, 0, 0, 0)" offset="0"></stop><stop stop-color="rgba(255, 0, 0, 1)" offset="1"></stop></linearGradient></defs></svg>